<svg xmlns="http://www.w3.org/2000/svg" xmlns:xlink="http://www.w3.org/1999/xlink" viewBox="0 0 750 500"><defs><clipPath id="freepik--clip-path--inject-62"><path d="M487.34,326.12h0c-2.3-4.73-14.85-8.37-29.21-8.45-14.82-.1-27.88,3.54-30.26,8.45l-.9-.43h0l30.63-63.21,30.64,63.22h0Zm-29.75-9.46h.55c12.13.07,22.75,2.58,27.65,6.27L457.6,264.77l-28.17,58.14C434.4,319.15,445.2,316.66,457.59,316.66Z" style="fill:#ebebeb"></path></clipPath><clipPath id="freepik--clip-path-2--inject-62"><path d="M457.63,338.59h-.56c-13.21-.08-24.85-3-28.95-7.4a5.06,5.06,0,0,1-1.61-3.77l.05-.19,31-64.76,30.64,63.22a4.45,4.45,0,0,1,.46,2.15C488.39,333.91,474.79,338.59,457.63,338.59Zm-30.13-11a4.21,4.21,0,0,0,1.34,2.93c3.93,4.17,15.28,7,28.23,7.09,16.35.12,30.35-4.39,30.63-9.8a3.35,3.35,0,0,0-.36-1.67l-29.73-61.35Z" style="fill:#ebebeb"></path></clipPath><clipPath id="freepik--clip-path-3--inject-62"><path d="M426.38,329.92l.13-2.5a4.33,4.33,0,0,1,.46-1.73l30.18-62.29.9.43h0Z" style="fill:#ebebeb"></path></clipPath><clipPath id="freepik--clip-path-4--inject-62"><path d="M457.6,264.13l-.68-.16h0l.23-1h0a3.14,3.14,0,0,0,.45,0,2,2,0,0,0,.44,0h0l.24,1h0Z" style="fill:#ebebeb"></path></clipPath><clipPath id="freepik--clip-path-5--inject-62"><path d="M488.31,325.66c-2.37-4.9-15.34-8.66-30.16-8.74-15.33-.08-28.79,3.66-31.25,8.73l-.9-.43,30.18-62.29c.25-.51,1.08-.57,1.44-.56s1.16.06,1.4.56l30.19,62.28h0Zm-30.72-9.75h.57c12.56.07,23.55,2.68,28.59,6.51l-28.59-59a1.63,1.63,0,0,0-.54-.08,1.89,1.89,0,0,0-.58.08L428.48,322.4C433.58,318.5,444.75,315.91,457.59,315.91Zm.61-52.44Zm-1.12-.1Z" style="fill:#ebebeb"></path></clipPath><clipPath id="freepik--clip-path-6--inject-62"><path d="M457.62,338.59h-.55a76.46,76.46,0,0,1-17.21-1.92l-.57-.14.24-1a78.36,78.36,0,0,0,17.52,2,79.63,79.63,0,0,0,18.63-2l.24,1h0l-.56.14A77.14,77.14,0,0,1,457.62,338.59Z" style="fill:#ebebeb"></path></clipPath><clipPath id="freepik--clip-path-7--inject-62"><path d="M439.86,336.67h0l-.11,0-.46-.11c-8.94-2.16-14-5.63-13.76-9.53l0-.71,2,.83,0,.35c-.16,3.15,4.61,6.28,12.47,8.2l.12,0Z" style="fill:#ebebeb"></path></clipPath><clipPath id="freepik--clip-path-8--inject-62"><path d="M475.35,336.67l-.24-1,.13,0c7.65-1.87,12.3-4.81,12.46-7.88a4.17,4.17,0,0,0-1.34-3c-3.93-4.16-15.27-7-28.23-7.08-16.34-.09-30.35,4.39-30.62,9.8l0,.72-2-.84,0-.35c.32-6.32,14.63-11.21,32.63-11.08,13.63.08,25.63,3.15,29.87,7.63a5.24,5.24,0,0,1,1.65,3.88c-.19,3.72-5.21,7-13.77,9.1l-.44.11-.12,0Zm11-13.3a8.31,8.31,0,0,1,.74.7,5.41,5.41,0,0,1,1.6,3.19,4.39,4.39,0,0,0-1.39-3A8.93,8.93,0,0,0,486.35,323.37Zm-59.79,3.34,0,0a6.34,6.34,0,0,1,2.23-3.34A5.61,5.61,0,0,0,426.56,326.71Z" style="fill:#ebebeb"></path></clipPath><clipPath id="freepik--clip-path-9--inject-62"><path d="M419.74,355.66A31.27,31.27,0,0,1,407.11,353,31.84,31.84,0,0,1,388,325.42a32,32,0,0,1,63.79-3.95,30.87,30.87,0,0,1,0,4.71,31.54,31.54,0,0,1-15.47,24.9A32.21,32.21,0,0,1,419.74,355.66Zm0-63a31,31,0,1,0,31,33.45l.1-2.45c0-.68,0-1.36-.07-2a29.64,29.64,0,0,0-7.92-18.05l-.54-.57h0a31.36,31.36,0,0,0-22.45-9.49v-.84Z" style="fill:#33EF8A"></path></clipPath></defs><g id="freepik--background-complete--inject-62"><path d="M207.59,260.56l-13.12.27-6.66.12c-2.23,0-4.47,0-6.7.05h-.44v-.44l-.06-11.19v-.51h.5l13.24.06c4.42,0,8.83.11,13.24.16h.28v.27c0,1.89-.09,3.78-.13,5.65Zm0,0-.14-5.66c0-1.86-.11-3.7-.13-5.53l.27.27c-4.41.05-8.82.16-13.24.16l-13.24.07.5-.5-.05,11.19-.45-.45c2.18,0,4.36,0,6.55.05l6.58.12Z" style="fill:#ebebeb"></path><path d="M192.82,274.67l-13.12.27-6.66.12c-2.23,0-4.47,0-6.7.05h-.44v-.44l-.06-11.19V263h.5l13.24.06c4.41,0,8.83.11,13.24.16h.28v.27c0,1.89-.08,3.78-.13,5.65Zm0,0-.14-5.66c-.05-1.86-.11-3.7-.13-5.53l.27.27c-4.41.05-8.83.16-13.24.16l-13.24.06.5-.49-.05,11.19-.45-.45c2.18,0,4.36,0,6.55,0l6.58.12Z" style="fill:#ebebeb"></path><path d="M583.66,274.67l-13.13.27-6.66.12c-2.22,0-4.46,0-6.69.05h-.45v-.44l-.05-11.19V263h.5l13.24.06c4.41,0,8.83.11,13.24.16h.27v.27c0,1.89-.08,3.78-.13,5.65Zm0,0-.14-5.66c0-1.86-.12-3.7-.13-5.53l.27.27c-4.41.05-8.83.16-13.24.16l-13.24.06.5-.49-.06,11.19-.44-.45c2.18,0,4.36,0,6.54,0l6.58.12Z" style="fill:#ebebeb"></path><path d="M568.89,76.2l-13.13.28-6.66.11c-2.22,0-4.46,0-6.69.06H542V76.2L541.91,65v-.5h.51l13.24.06c4.41,0,8.82.12,13.24.17h.27V65c0,1.9-.09,3.79-.13,5.65Zm0,0-.14-5.65c0-1.87-.12-3.71-.14-5.54l.28.27c-4.42,0-8.83.16-13.24.17l-13.24.06.5-.5-.06,11.19-.44-.45c2.18,0,4.35,0,6.54.06l6.58.11Z" style="fill:#ebebeb"></path><path d="M583.66,90.31l-13.13.28-6.66.11c-2.22,0-4.46,0-6.69.06h-.45v-.45l-.05-11.19v-.5h.5l13.24.06c4.41,0,8.83.12,13.24.17h.27v.27c0,1.9-.08,3.79-.13,5.65Zm0,0-.14-5.65c0-1.87-.12-3.71-.13-5.54l.27.27c-4.41,0-8.83.16-13.24.17l-13.24.06.5-.5-.06,11.19-.44-.45c2.18,0,4.36,0,6.54.06l6.58.11Z" style="fill:#ebebeb"></path><path d="M207.59,76.2l-13.12.28-6.66.11c-2.23,0-4.47,0-6.7.06h-.44V76.2L180.61,65v-.5h.5l13.24.06c4.42,0,8.83.12,13.24.17h.28V65c0,1.9-.09,3.79-.13,5.65Zm0,0-.14-5.65c0-1.87-.11-3.71-.13-5.54l.27.27c-4.41,0-8.82.16-13.24.17l-13.24.06.5-.5-.05,11.19-.45-.45c2.18,0,4.36,0,6.55.06l6.58.11Z" style="fill:#ebebeb"></path><path d="M635.51,203.05l5.89-9.49-2.9-1.8a2.67,2.67,0,0,1-1.24-2.5,15.54,15.54,0,0,0,.06-1.67,2.64,2.64,0,0,1,1.38-2.41l3-1.62-5.28-9.84-3,1.61a2.62,2.62,0,0,1-2.77-.18c-.46-.32-.94-.61-1.42-.88a2.65,2.65,0,0,1-1.4-2.4l.11-3.42-11.17-.35-.1,3.43a2.66,2.66,0,0,1-1.56,2.31l-.73.37-.72.41a2.63,2.63,0,0,1-2.77,0L608,172.83l-5.88,9.49,2.91,1.8a2.66,2.66,0,0,1,1.23,2.5,15.54,15.54,0,0,0-.06,1.67,2.62,2.62,0,0,1-1.38,2.4l-3,1.62,5.28,9.85,3-1.62a2.66,2.66,0,0,1,2.77.18,15.87,15.87,0,0,0,1.42.87,2.66,2.66,0,0,1,1.4,2.41l-.11,3.42,11.17.35.1-3.43a2.66,2.66,0,0,1,1.55-2.3c.25-.12.5-.24.74-.37s.48-.27.72-.41a2.67,2.67,0,0,1,2.79,0ZM626.06,196a9.15,9.15,0,1,1,3.75-12.39A9.14,9.14,0,0,1,626.06,196Z" style="fill:#ebebeb"></path><path d="M85.9,141.82,82,135l-2.08,1.2a1.85,1.85,0,0,1-2-.07,11,11,0,0,0-1-.58,1.85,1.85,0,0,1-1-1.65v-2.4H68.09v2.4a1.85,1.85,0,0,1-1,1.65c-.34.18-.68.37-1,.58a1.85,1.85,0,0,1-2,.07L62,135l-3.91,6.78L60.2,143a1.85,1.85,0,0,1,.91,1.72c0,.2,0,.39,0,.58s0,.38,0,.58a1.84,1.84,0,0,1-.9,1.71l-2.09,1.21L62,155.6l2.08-1.2a1.85,1.85,0,0,1,2,.07,11,11,0,0,0,1,.58,1.86,1.86,0,0,1,1,1.65v2.4h7.83v-2.4a1.85,1.85,0,0,1,1-1.65c.34-.18.68-.37,1-.58a1.85,1.85,0,0,1,2-.07L82,155.6l3.91-6.78-2.08-1.2a1.85,1.85,0,0,1-.91-1.72c0-.19,0-.39,0-.58s0-.38,0-.58a1.85,1.85,0,0,1,.91-1.72Zm-7.48,3.5A6.41,6.41,0,1,1,72,138.91,6.41,6.41,0,0,1,78.42,145.32Z" style="fill:#ebebeb"></path><path d="M655.22,234.66a30.47,30.47,0,1,0,30.47,30.47A30.47,30.47,0,0,0,655.22,234.66Zm0,44.7a14.23,14.23,0,1,1,14.23-14.23A14.24,14.24,0,0,1,655.22,279.36Z" style="fill:#ebebeb"></path><polygon points="661.08 235.92 649.36 235.92 650.01 227.63 660.43 227.63 661.08 235.92" style="fill:#ebebeb"></polygon><polygon points="638.77 239.87 630.49 248.16 625.08 241.83 632.45 234.47 638.77 239.87" style="fill:#ebebeb"></polygon><polygon points="625.79 258.43 625.79 270.15 617.5 269.5 617.5 259.08 625.79 258.43" style="fill:#ebebeb"></polygon><polygon points="629.74 280.74 638.03 289.02 631.71 294.43 624.34 287.06 629.74 280.74" style="fill:#ebebeb"></polygon><polygon points="648.3 293.72 660.02 293.72 659.38 302.01 648.95 302.01 648.3 293.72" style="fill:#ebebeb"></polygon><polygon points="670.61 289.77 678.89 281.48 684.3 287.81 676.93 295.18 670.61 289.77" style="fill:#ebebeb"></polygon><polygon points="683.59 271.21 683.59 259.49 691.88 260.14 691.88 270.56 683.59 271.21" style="fill:#ebebeb"></polygon><polygon points="679.64 248.9 671.35 240.62 677.68 235.21 685.05 242.58 679.64 248.9" style="fill:#ebebeb"></polygon><path d="M684.22,311.91l-13.12.28-6.67.11c-2.22.05-4.46,0-6.69.06h-.44v-.45l0-11.19v-.5h.5l13.24.06c4.41,0,8.83.12,13.24.17h.28v.27c0,1.9-.08,3.79-.13,5.66Zm0,0-.14-5.65c-.05-1.87-.11-3.71-.13-5.54l.27.27c-4.41.06-8.83.16-13.24.17l-13.24.06.5-.5,0,11.19-.45-.44c2.18,0,4.36,0,6.55,0l6.57.11Z" style="fill:#ebebeb"></path><path d="M669.45,326l-13.13.28-6.66.11c-2.22,0-4.46,0-6.69.06h-.45V326l0-11.19v-.5h.5l13.24.06c4.41,0,8.83.12,13.24.17h.27v.27c0,1.9-.08,3.79-.13,5.66Zm0,0-.14-5.65c0-1.87-.12-3.71-.13-5.54l.27.27c-4.41.06-8.83.16-13.24.17l-13.24.06.5-.5L643.41,326l-.44-.44c2.18,0,4.36,0,6.54.05l6.58.11Z" style="fill:#ebebeb"></path><path d="M699,326l-13.12.28-6.66.11c-2.23,0-4.47,0-6.7.06h-.44V326L672,314.83v-.5h.5l13.24.06c4.42,0,8.83.12,13.24.17h.28v.27c0,1.9-.08,3.79-.13,5.66Zm0,0-.14-5.65c0-1.87-.11-3.71-.13-5.54l.27.27c-4.41.06-8.82.16-13.24.17l-13.24.06.5-.5L673,326l-.45-.44c2.18,0,4.36,0,6.55.05l6.58.11Z" style="fill:#ebebeb"></path><path d="M306.64,178.75l-13.12.28-6.67.11c-2.22.05-4.46,0-6.69.06h-.44v-.45l0-11.19v-.5h.5l13.24.07c4.41,0,8.83.11,13.24.16h.28v.27c0,1.9-.08,3.79-.13,5.66Zm0,0-.14-5.65c-.05-1.86-.11-3.7-.13-5.54l.27.28c-4.41,0-8.83.16-13.24.16l-13.24.06.5-.5-.05,11.19-.45-.44c2.18,0,4.36,0,6.55.05l6.57.12Z" style="fill:#ebebeb"></path><path d="M291.87,192.86l-13.13.28-6.66.11c-2.22.05-4.46,0-6.69.06h-.45v-.45l-.05-11.19v-.5h.5l13.24.07c4.41,0,8.83.11,13.24.16h.27v.27c0,1.9-.08,3.79-.13,5.66Zm0,0-.14-5.65c-.05-1.86-.12-3.7-.13-5.54l.27.28c-4.41.05-8.83.16-13.24.16l-13.24.06.5-.5-.06,11.19-.44-.44c2.18,0,4.36,0,6.54.05l6.58.12Z" style="fill:#ebebeb"></path><path d="M321.41,192.86l-13.12.28-6.66.11c-2.23.05-4.47,0-6.7.06h-.44v-.45l-.06-11.19v-.5h.5l13.24.07c4.42,0,8.83.11,13.24.16h.28v.27c0,1.9-.09,3.79-.14,5.66Zm0,0-.14-5.65c0-1.86-.11-3.7-.13-5.54l.27.28c-4.41.05-8.82.16-13.24.16l-13.24.06.5-.5-.05,11.19-.45-.44c2.18,0,4.36,0,6.55.05l6.58.12Z" style="fill:#ebebeb"></path><path d="M90.73,252.79l-13.13.28-6.66.11c-2.22,0-4.46,0-6.69.06H63.8v-.45l0-11.19v-.5h.5l13.24.07c4.41,0,8.83.11,13.24.16H91v.27c0,1.9-.08,3.79-.13,5.66Zm0,0-.14-5.65c0-1.86-.12-3.7-.13-5.54l.27.28c-4.41.05-8.83.16-13.24.16l-13.24.06.5-.5-.06,11.19-.44-.44c2.18,0,4.36,0,6.54.05l6.58.11Z" style="fill:#ebebeb"></path><path d="M529.71,178.75l-13.12.27-6.67.12c-2.22,0-4.46,0-6.69.05h-.44v-.45l0-11.19v-.51h.5l13.24.06c4.41,0,8.83.11,13.24.16H530v.27c0,1.89-.08,3.78-.13,5.65Zm0,0-.14-5.66c-.05-1.86-.11-3.7-.13-5.53l.27.27c-4.41,0-8.83.16-13.24.16l-13.24.07.5-.5-.05,11.19-.45-.45c2.18,0,4.36,0,6.55.06l6.57.11Z" style="fill:#ebebeb"></path><path d="M682.69,70.07l-13.13.28-6.66.11c-2.22,0-4.46,0-6.69.05h-.45v-.45l0-11.19v-.51h.5l13.24.06c4.41,0,8.83.11,13.24.16H683v.27c0,1.9-.08,3.78-.13,5.65Zm0,0-.14-5.66c0-1.86-.12-3.7-.13-5.53l.27.27c-4.41.05-8.83.16-13.24.16l-13.24.07.5-.5-.06,11.19-.44-.45c2.18,0,4.36,0,6.54.06l6.58.11Z" style="fill:#ebebeb"></path><path d="M697.46,84.18l-13.12.27-6.67.12c-2.22,0-4.46,0-6.69.05h-.44v-.45l0-11.19v-.51h.5l13.24.06c4.41,0,8.83.11,13.24.16h.28V73c0,1.9-.08,3.78-.13,5.65Zm0,0-.14-5.66c-.05-1.86-.11-3.7-.13-5.53l.27.27c-4.41,0-8.83.16-13.24.16L671,73.49l.5-.5-.05,11.19-.45-.45c2.18,0,4.36,0,6.55.06l6.57.11Z" style="fill:#ebebeb"></path><path d="M77.49,70.08l-13.13.28-6.66.11c-2.22,0-4.46,0-6.69,0h-.45v-.45l-.05-11.19v-.5H51l13.24.06c4.41,0,8.82.11,13.24.17h.27v.27c0,1.9-.08,3.79-.13,5.65Zm0,0-.14-5.66c0-1.86-.12-3.7-.13-5.53l.27.27c-4.42.05-8.83.16-13.24.17L51,59.39l.5-.5-.06,11.19L51,69.63c2.18,0,4.36,0,6.54.06l6.58.11Z" style="fill:#ebebeb"></path><path d="M216.4,137.9H89.76V51.27H216.4Zm-125.64-1H215.4V52.27H90.76Z" style="fill:#ebebeb"></path><path d="M99.67,56.85a2.53,2.53,0,1,1-2.52-2.52A2.52,2.52,0,0,1,99.67,56.85Z" style="fill:#a6a6a6"></path><path d="M110,56.85a2.52,2.52,0,1,1-2.52-2.52A2.52,2.52,0,0,1,110,56.85Z" style="fill:#ebebeb"></path><path d="M120.25,56.85a2.52,2.52,0,1,1-2.52-2.52A2.52,2.52,0,0,1,120.25,56.85Z" style="fill:#33EF8A"></path><rect x="90.26" y="61.28" width="125.64" height="1" style="fill:#ebebeb"></rect></g><g id="freepik--Shadow--inject-62"><ellipse cx="536.58" cy="445.58" rx="153.1" ry="14.06" style="fill:#ebebeb"></ellipse></g><g id="freepik--Floor--inject-62"><polygon points="50.23 403.1 131.42 402.86 212.62 402.77 375 402.6 537.38 402.77 618.58 402.85 699.77 403.1 618.58 403.34 537.38 403.43 375 403.6 212.62 403.43 131.42 403.34 50.23 403.1" style="fill:#263238"></polygon></g><g id="freepik--Window--inject-62"><rect x="127.19" y="69.48" width="496.04" height="314.08" style="fill:#fff"></rect><path d="M623.23,383.55l-496,.28h-.28v-.28l-.09-314.07V69.1h.37l496,.16h.22v.22Zm0,0L623,69.48l.22.22-496,.15.37-.37-.09,314.07-.28-.27Z" style="fill:#263238"></path><rect x="126.77" y="69.48" width="496.46" height="12.09" style="fill:#455a64"></rect><circle cx="133.38" cy="75.52" r="3" style="fill:#c7c7c7"></circle><path d="M148.62,75.52a3,3,0,1,1-3-3A3,3,0,0,1,148.62,75.52Z" style="fill:#fff"></path><path d="M160.86,75.52a3,3,0,1,1-3-3A3,3,0,0,1,160.86,75.52Z" style="fill:#33EF8A"></path><rect x="126.77" y="81.56" width="18.85" height="301.99" style="fill:#a6a6a6"></rect><path d="M143,98.84,129.42,99h-.19v-.2l-.05-13.55V85h.25l13.55,0h.2v.2Zm0,0-.19-13.55.19.19-13.55.06.25-.25-.06,13.55-.19-.19Z" style="fill:#c7c7c7"></path><path d="M143,116.47l-13.55.19h-.19v-.2l-.05-13.55v-.26h.25l13.55,0h.2v.2Zm0,0-.19-13.55.19.19-13.55,0,.25-.24-.06,13.55-.19-.19Z" style="fill:#c7c7c7"></path><path d="M143,134.1l-13.55.19h-.19v-.2l-.05-13.56v-.25h.25l13.55.06h.2v.19Zm0,0-.19-13.56.19.2-13.55.05.25-.25-.06,13.56-.19-.19Z" style="fill:#c7c7c7"></path><path d="M143,151.73l-13.55.19h-.19v-.2l-.05-13.56v-.25h.25L143,138h.2v.19Zm0,0-.19-13.56.19.2-13.55,0,.25-.25-.06,13.56-.19-.19Z" style="fill:#c7c7c7"></path><path d="M143,169.36l-13.55.19h-.19v-.2l-.05-13.56v-.25h.25l13.55.06h.2v.19Zm0,0-.19-13.56.19.2-13.55.05.25-.25-.06,13.56-.19-.19Z" style="fill:#c7c7c7"></path><path d="M143,187l-13.55.19h-.19V187l-.05-13.56v-.25h.25l13.55.06h.2v.19Zm0,0-.19-13.56.19.2-13.55.05.25-.25L129.61,187l-.19-.19Z" style="fill:#c7c7c7"></path><path d="M143,204.62l-13.55.19h-.19v-.19l-.05-13.56v-.25h.25l13.55.06h.2v.19Zm0,0-.19-13.56.19.2-13.55.05.25-.25-.06,13.56-.19-.19Z" style="fill:#c7c7c7"></path><rect x="530.79" y="107.39" width="92.44" height="276.16" style="fill:#c7c7c7"></rect><rect x="538.83" y="273.28" width="76.37" height="102.16" style="fill:#a6a6a6"></rect><rect x="538.83" y="152.7" width="76.37" height="102.16" style="fill:#a6a6a6"></rect><rect x="538.83" y="141.1" width="76.37" height="7.07" style="fill:#dbdbdb"></rect><rect x="538.83" y="114.6" width="76.37" height="7.07" style="fill:#dbdbdb"></rect><rect x="538.83" y="135.47" width="76.37" height="2.34" style="fill:#dbdbdb"></rect><rect x="538.83" y="259.39" width="76.37" height="2.34" style="fill:#dbdbdb"></rect><rect x="538.83" y="264.07" width="51.11" height="2.34" style="fill:#dbdbdb"></rect><rect x="538.83" y="129.84" width="76.37" height="2.34" style="fill:#dbdbdb"></rect><rect x="538.83" y="124.21" width="76.37" height="2.34" style="fill:#dbdbdb"></rect><rect x="145.62" y="107.39" width="385.17" height="276.16" style="fill:#263238"></rect><polygon points="145.62 114.66 337.38 114.53 529.13 114.66 337.38 114.78 145.62 114.66" style="fill:#37474f"></polygon><polygon points="145.62 121.93 337.38 121.8 529.13 121.93 337.38 122.05 145.62 121.93" style="fill:#37474f"></polygon><polygon points="145.62 129.19 337.38 129.07 529.13 129.19 337.38 129.32 145.62 129.19" style="fill:#37474f"></polygon><polygon points="145.62 136.46 337.38 136.34 529.13 136.46 337.38 136.59 145.62 136.46" style="fill:#37474f"></polygon><polygon points="145.62 143.73 337.38 143.6 529.13 143.73 337.38 143.85 145.62 143.73" style="fill:#37474f"></polygon><polygon points="145.62 151 337.38 150.87 529.13 151 337.38 151.12 145.62 151" style="fill:#37474f"></polygon><polygon points="145.62 158.26 337.38 158.14 529.13 158.26 337.38 158.39 145.62 158.26" style="fill:#37474f"></polygon><polygon points="145.62 165.53 337.38 165.41 529.13 165.53 337.38 165.66 145.62 165.53" style="fill:#37474f"></polygon><polygon points="145.62 172.8 337.38 172.67 529.13 172.8 337.38 172.92 145.62 172.8" style="fill:#37474f"></polygon><polygon points="145.62 180.07 337.38 179.94 529.13 180.07 337.38 180.19 145.62 180.07" style="fill:#37474f"></polygon><polygon points="145.62 187.33 337.38 187.21 529.13 187.33 337.38 187.46 145.62 187.33" style="fill:#37474f"></polygon><polygon points="145.62 194.6 337.38 194.48 529.13 194.6 337.38 194.72 145.62 194.6" style="fill:#37474f"></polygon><polygon points="145.62 201.87 337.38 201.74 529.13 201.87 337.38 201.99 145.62 201.87" style="fill:#37474f"></polygon><polygon points="145.62 209.13 337.38 209.01 529.13 209.13 337.38 209.26 145.62 209.13" style="fill:#37474f"></polygon><polygon points="145.62 216.4 337.38 216.28 529.13 216.4 337.38 216.53 145.62 216.4" style="fill:#37474f"></polygon><polygon points="145.62 223.67 337.38 223.55 529.13 223.67 337.38 223.79 145.62 223.67" style="fill:#37474f"></polygon><polygon points="145.62 230.94 337.38 230.81 529.13 230.94 337.38 231.06 145.62 230.94" style="fill:#37474f"></polygon><polygon points="145.62 238.21 337.38 238.08 529.13 238.21 337.38 238.33 145.62 238.21" style="fill:#37474f"></polygon><polygon points="145.62 245.47 337.38 245.35 529.13 245.47 337.38 245.6 145.62 245.47" style="fill:#37474f"></polygon><polygon points="145.62 252.74 337.38 252.62 529.13 252.74 337.38 252.86 145.62 252.74" style="fill:#37474f"></polygon><polygon points="145.62 260.01 337.38 259.88 529.13 260.01 337.38 260.13 145.62 260.01" style="fill:#37474f"></polygon><polygon points="145.62 267.27 337.38 267.15 529.13 267.27 337.38 267.4 145.62 267.27" style="fill:#37474f"></polygon><polygon points="145.62 274.54 337.38 274.42 529.13 274.54 337.38 274.67 145.62 274.54" style="fill:#37474f"></polygon><polygon points="145.62 281.81 337.38 281.69 529.13 281.81 337.38 281.93 145.62 281.81" style="fill:#37474f"></polygon><polygon points="145.62 289.08 337.38 288.95 529.13 289.08 337.38 289.2 145.62 289.08" style="fill:#37474f"></polygon><polygon points="145.62 296.34 337.38 296.22 529.13 296.34 337.38 296.47 145.62 296.34" style="fill:#37474f"></polygon><polygon points="145.62 303.61 337.38 303.49 529.13 303.61 337.38 303.74 145.62 303.61" style="fill:#37474f"></polygon><polygon points="145.62 310.88 337.38 310.75 529.13 310.88 337.38 311 145.62 310.88" style="fill:#37474f"></polygon><polygon points="145.62 318.15 337.38 318.02 529.13 318.15 337.38 318.27 145.62 318.15" style="fill:#37474f"></polygon><polygon points="145.62 325.41 337.38 325.29 529.13 325.41 337.38 325.54 145.62 325.41" style="fill:#37474f"></polygon><polygon points="145.62 332.68 337.38 332.56 529.13 332.68 337.38 332.81 145.62 332.68" style="fill:#37474f"></polygon><polygon points="145.62 339.95 337.38 339.82 529.13 339.95 337.38 340.07 145.62 339.95" style="fill:#37474f"></polygon><polygon points="145.62 347.22 337.38 347.09 529.13 347.22 337.38 347.34 145.62 347.22" style="fill:#37474f"></polygon><polygon points="145.62 354.48 337.38 354.36 529.13 354.48 337.38 354.61 145.62 354.48" style="fill:#37474f"></polygon><polygon points="145.62 361.75 337.38 361.63 529.13 361.75 337.38 361.88 145.62 361.75" style="fill:#37474f"></polygon><polygon points="145.62 369.02 337.38 368.89 529.13 369.02 337.38 369.14 145.62 369.02" style="fill:#37474f"></polygon><polygon points="145.62 376.29 337.38 376.16 529.13 376.29 337.38 376.41 145.62 376.29" style="fill:#37474f"></polygon><polygon points="421.78 107.39 421.9 245.47 421.78 383.55 421.66 245.47 421.78 107.39" style="fill:#37474f"></polygon><polygon points="414.51 107.39 414.64 245.47 414.51 383.55 414.39 245.47 414.51 107.39" style="fill:#37474f"></polygon><polygon points="429.05 107.39 429.17 245.47 429.05 383.55 428.92 245.47 429.05 107.39" style="fill:#37474f"></polygon><polygon points="436.32 107.39 436.44 245.47 436.32 383.55 436.19 245.47 436.32 107.39" style="fill:#37474f"></polygon><polygon points="443.58 107.39 443.71 245.47 443.58 383.55 443.46 245.47 443.58 107.39" style="fill:#37474f"></polygon><polygon points="450.85 107.39 450.98 245.47 450.85 383.55 450.73 245.47 450.85 107.39" style="fill:#37474f"></polygon><polygon points="458.12 107.39 458.24 245.47 458.12 383.55 457.99 245.47 458.12 107.39" style="fill:#37474f"></polygon><polygon points="465.38 107.39 465.51 245.47 465.38 383.55 465.26 245.47 465.38 107.39" style="fill:#37474f"></polygon><polygon points="472.65 107.39 472.78 245.47 472.65 383.55 472.53 245.47 472.65 107.39" style="fill:#37474f"></polygon><polygon points="479.92 107.39 480.05 245.47 479.92 383.55 479.8 245.47 479.92 107.39" style="fill:#37474f"></polygon><polygon points="487.19 107.39 487.31 245.47 487.19 383.55 487.06 245.47 487.19 107.39" style="fill:#37474f"></polygon><polygon points="494.45 107.39 494.58 245.47 494.45 383.55 494.33 245.47 494.45 107.39" style="fill:#37474f"></polygon><polygon points="501.72 107.39 501.85 245.47 501.72 383.55 501.6 245.47 501.72 107.39" style="fill:#37474f"></polygon><polygon points="508.99 107.39 509.12 245.47 508.99 383.55 508.87 245.47 508.99 107.39" style="fill:#37474f"></polygon><polygon points="516.26 107.39 516.38 245.47 516.26 383.55 516.13 245.47 516.26 107.39" style="fill:#37474f"></polygon><polygon points="523.52 107.39 523.65 245.47 523.52 383.55 523.4 245.47 523.52 107.39" style="fill:#37474f"></polygon><polygon points="407.25 107.39 407.37 245.47 407.25 383.55 407.12 245.47 407.25 107.39" style="fill:#37474f"></polygon><polygon points="399.98 107.39 400.1 245.47 399.98 383.55 399.85 245.47 399.98 107.39" style="fill:#37474f"></polygon><polygon points="392.71 107.39 392.84 245.47 392.71 383.55 392.59 245.47 392.71 107.39" style="fill:#37474f"></polygon><polygon points="385.44 107.39 385.57 245.47 385.44 383.55 385.32 245.47 385.44 107.39" style="fill:#37474f"></polygon><polygon points="378.18 107.39 378.3 245.47 378.18 383.55 378.05 245.47 378.18 107.39" style="fill:#37474f"></polygon><polygon points="370.91 107.39 371.03 245.47 370.91 383.55 370.78 245.47 370.91 107.39" style="fill:#37474f"></polygon><polygon points="363.64 107.39 363.77 245.47 363.64 383.55 363.52 245.47 363.64 107.39" style="fill:#37474f"></polygon><polygon points="356.37 107.39 356.5 245.47 356.37 383.55 356.25 245.47 356.37 107.39" style="fill:#37474f"></polygon><polygon points="349.11 107.39 349.23 245.47 349.11 383.55 348.98 245.47 349.11 107.39" style="fill:#37474f"></polygon><polygon points="341.84 107.39 341.96 245.47 341.84 383.55 341.71 245.47 341.84 107.39" style="fill:#37474f"></polygon><polygon points="334.57 107.39 334.7 245.47 334.57 383.55 334.45 245.47 334.57 107.39" style="fill:#37474f"></polygon><polygon points="327.31 107.39 327.43 245.47 327.31 383.55 327.18 245.47 327.31 107.39" style="fill:#37474f"></polygon><polygon points="320.04 107.39 320.16 245.47 320.04 383.55 319.91 245.47 320.04 107.39" style="fill:#37474f"></polygon><polygon points="312.77 107.39 312.89 245.47 312.77 383.55 312.64 245.47 312.77 107.39" style="fill:#37474f"></polygon><polygon points="305.5 107.39 305.63 245.47 305.5 383.55 305.38 245.47 305.5 107.39" style="fill:#37474f"></polygon><polygon points="298.24 107.39 298.36 245.47 298.24 383.55 298.11 245.47 298.24 107.39" style="fill:#37474f"></polygon><polygon points="290.97 107.39 291.09 245.47 290.97 383.55 290.84 245.47 290.97 107.39" style="fill:#37474f"></polygon><polygon points="283.7 107.39 283.82 245.47 283.7 383.55 283.58 245.47 283.7 107.39" style="fill:#37474f"></polygon><polygon points="276.43 107.39 276.56 245.47 276.43 383.55 276.31 245.47 276.43 107.39" style="fill:#37474f"></polygon><polygon points="269.17 107.39 269.29 245.47 269.17 383.55 269.04 245.47 269.17 107.39" style="fill:#37474f"></polygon><polygon points="261.9 107.39 262.02 245.47 261.9 383.55 261.77 245.47 261.9 107.39" style="fill:#37474f"></polygon><polygon points="254.63 107.39 254.75 245.47 254.63 383.55 254.51 245.47 254.63 107.39" style="fill:#37474f"></polygon><polygon points="247.36 107.39 247.49 245.47 247.36 383.55 247.24 245.47 247.36 107.39" style="fill:#37474f"></polygon><polygon points="240.1 107.39 240.22 245.47 240.1 383.55 239.97 245.47 240.1 107.39" style="fill:#37474f"></polygon><polygon points="232.83 107.39 232.95 245.47 232.83 383.55 232.7 245.47 232.83 107.39" style="fill:#37474f"></polygon><polygon points="225.56 107.39 225.69 245.47 225.56 383.55 225.44 245.47 225.56 107.39" style="fill:#37474f"></polygon><polygon points="218.29 107.39 218.42 245.47 218.29 383.55 218.17 245.47 218.29 107.39" style="fill:#37474f"></polygon><polygon points="211.03 107.39 211.15 245.47 211.03 383.55 210.9 245.47 211.03 107.39" style="fill:#37474f"></polygon><polygon points="203.76 107.39 203.88 245.47 203.76 383.55 203.63 245.47 203.76 107.39" style="fill:#37474f"></polygon><polygon points="196.49 107.39 196.62 245.47 196.49 383.55 196.37 245.47 196.49 107.39" style="fill:#37474f"></polygon><polygon points="189.22 107.39 189.35 245.47 189.22 383.55 189.1 245.47 189.22 107.39" style="fill:#37474f"></polygon><polygon points="181.96 107.39 182.08 245.47 181.96 383.55 181.83 245.47 181.96 107.39" style="fill:#37474f"></polygon><polygon points="174.69 107.39 174.81 245.47 174.69 383.55 174.56 245.47 174.69 107.39" style="fill:#37474f"></polygon><polygon points="167.42 107.39 167.55 245.47 167.42 383.55 167.3 245.47 167.42 107.39" style="fill:#37474f"></polygon><polygon points="160.15 107.39 160.28 245.47 160.15 383.55 160.03 245.47 160.15 107.39" style="fill:#37474f"></polygon><polygon points="152.89 107.39 153.01 245.47 152.89 383.55 152.76 245.47 152.89 107.39" style="fill:#37474f"></polygon><rect x="335.94" y="107.39" width="2.87" height="276.16" style="fill:#a6a6a6"></rect><rect x="336.77" y="52.89" width="2.87" height="385.17" transform="translate(583.68 -92.73) rotate(90)" style="fill:#a6a6a6"></rect><rect x="145.62" y="81.56" width="477.61" height="25.83" style="fill:#dbdbdb"></rect></g><g id="freepik--3d-figures--inject-62"><path d="M282.24,186.59A30.79,30.79,0,1,1,313,155.8,30.82,30.82,0,0,1,282.24,186.59Zm0-61.07a30.29,30.29,0,1,0,30.28,30.28A30.32,30.32,0,0,0,282.24,125.52Z" style="fill:#ebebeb"></path><rect x="281.99" y="155.8" width="0.5" height="30.53" style="fill:#ebebeb"></rect><rect x="285.16" y="155.47" width="0.5" height="30.53" transform="translate(-29.26 63.07) rotate(-12)" style="fill:#ebebeb"></rect><rect x="288.2" y="154.48" width="0.5" height="30.53" transform="translate(-44.11 131.99) rotate(-24)" style="fill:#ebebeb"></rect><rect x="290.96" y="152.89" width="0.5" height="30.53" transform="translate(-43.22 203.28) rotate(-36)" style="fill:#ebebeb"></rect><polygon points="304.76 176.42 282.07 155.99 282.4 155.62 305.09 176.05 304.76 176.42" style="fill:#ebebeb"></polygon><rect x="295.21" y="148.17" width="0.5" height="30.53" transform="translate(6.19 337.59) rotate(-60)" style="fill:#ebebeb"></rect><rect x="296.51" y="145.25" width="0.5" height="30.53" transform="translate(52.39 393.15) rotate(-72)" style="fill:#ebebeb"></rect><rect x="297.17" y="142.13" width="0.5" height="30.53" transform="translate(109.79 436.74) rotate(-84)" style="fill:#ebebeb"></rect><rect x="282.15" y="153.96" width="30.53" height="0.5" transform="translate(-14.61 32.24) rotate(-6.06)" style="fill:#ebebeb"></rect><rect x="281.49" y="150.84" width="30.53" height="0.5" transform="translate(-32.14 98.95) rotate(-17.97)" style="fill:#ebebeb"></rect><rect x="280.19" y="147.92" width="30.53" height="0.5" transform="translate(-34.49 167.71) rotate(-30.02)" style="fill:#ebebeb"></rect><polygon points="282.4 155.99 282.07 155.62 304.76 135.19 305.09 135.56 282.4 155.99" style="fill:#ebebeb"></polygon><rect x="275.94" y="143.2" width="30.53" height="0.5" transform="translate(3.93 294.63) rotate(-53.98)" style="fill:#ebebeb"></rect><rect x="273.18" y="141.61" width="30.53" height="0.5" transform="translate(41.67 347.83) rotate(-66.04)" style="fill:#ebebeb"></rect><rect x="270.14" y="140.62" width="30.53" height="0.5" transform="translate(88.51 390.94) rotate(-78.05)" style="fill:#ebebeb"></rect><rect x="281.99" y="125.27" width="0.5" height="30.53" style="fill:#ebebeb"></rect><rect x="278.81" y="125.6" width="0.5" height="30.53" transform="translate(-23.19 61.1) rotate(-12)" style="fill:#ebebeb"></rect><rect x="275.78" y="126.59" width="0.5" height="30.53" transform="translate(-33.83 124.54) rotate(-24)" style="fill:#ebebeb"></rect><rect x="273.01" y="128.19" width="0.5" height="30.53" transform="matrix(0.81, -0.59, 0.59, 0.81, -32.13, 188.02)" style="fill:#ebebeb"></rect><rect x="270.64" y="130.32" width="0.5" height="30.53" transform="translate(-18.56 249.49) rotate(-48)" style="fill:#ebebeb"></rect><rect x="268.76" y="132.9" width="0.5" height="30.53" transform="matrix(0.5, -0.87, 0.87, 0.5, 6.19, 307.06)" style="fill:#ebebeb"></rect><rect x="267.47" y="135.82" width="0.5" height="30.53" transform="translate(41.3 359.01) rotate(-72)" style="fill:#ebebeb"></rect><rect x="266.8" y="138.94" width="0.5" height="30.53" transform="translate(85.78 403.68) rotate(-84)" style="fill:#ebebeb"></rect><rect x="251.79" y="157.15" width="30.53" height="0.5" transform="translate(-15.12 29.05) rotate(-6.06)" style="fill:#ebebeb"></rect><rect x="252.45" y="160.27" width="30.53" height="0.5" transform="translate(-36.47 90.45) rotate(-17.97)" style="fill:#ebebeb"></rect><rect x="253.75" y="163.19" width="30.53" height="0.5" transform="translate(-45.68 156.53) rotate(-30.02)" style="fill:#ebebeb"></rect><rect x="255.62" y="165.77" width="30.53" height="0.5" transform="translate(-41.48 224.08) rotate(-42.03)" style="fill:#ebebeb"></rect><rect x="257.99" y="167.91" width="30.53" height="0.5" transform="translate(-23.44 290.29) rotate(-53.98)" style="fill:#ebebeb"></rect><rect x="260.76" y="169.5" width="30.53" height="0.5" transform="translate(8.8 353.04) rotate(-66.04)" style="fill:#ebebeb"></rect><rect x="263.79" y="170.49" width="30.53" height="0.5" transform="translate(54.26 408.41) rotate(-78.05)" style="fill:#ebebeb"></rect><path d="M202.34,230.11a30.74,30.74,0,1,1,30.74-30.74A30.77,30.77,0,0,1,202.34,230.11Zm0-61a30.24,30.24,0,1,0,30.24,30.24A30.27,30.27,0,0,0,202.34,169.13Z" style="fill:#33EF8A"></path><path d="M202.34,226.3a26.93,26.93,0,1,1,26.93-26.93A27,27,0,0,1,202.34,226.3Zm0-53.36a26.43,26.43,0,1,0,26.43,26.43A26.46,26.46,0,0,0,202.34,172.94Z" style="fill:#33EF8A"></path><path d="M202.34,222.49a23.12,23.12,0,1,1,23.12-23.12A23.14,23.14,0,0,1,202.34,222.49Zm0-45.74A22.62,22.62,0,1,0,225,199.37,22.65,22.65,0,0,0,202.34,176.75Z" style="fill:#33EF8A"></path><path d="M202.34,218.68a19.31,19.31,0,1,1,19.3-19.31A19.33,19.33,0,0,1,202.34,218.68Zm0-38.12a18.81,18.81,0,1,0,18.8,18.81A18.83,18.83,0,0,0,202.34,180.56Z" style="fill:#33EF8A"></path><path d="M202.34,214.86a15.49,15.49,0,1,1,15.49-15.49A15.51,15.51,0,0,1,202.34,214.86Zm0-30.48a15,15,0,1,0,15,15A15,15,0,0,0,202.34,184.38Z" style="fill:#33EF8A"></path><path d="M202.34,211.05A11.68,11.68,0,1,1,214,199.37,11.69,11.69,0,0,1,202.34,211.05Zm0-22.86a11.18,11.18,0,1,0,11.18,11.18A11.19,11.19,0,0,0,202.34,188.19Z" style="fill:#33EF8A"></path><path d="M202.34,207.24a7.87,7.87,0,1,1,7.87-7.87A7.88,7.88,0,0,1,202.34,207.24Zm0-15.24a7.37,7.37,0,1,0,7.37,7.37A7.37,7.37,0,0,0,202.34,192Z" style="fill:#33EF8A"></path><path d="M202.34,203.43a4.06,4.06,0,1,1,4.06-4.06A4.06,4.06,0,0,1,202.34,203.43Zm0-7.62a3.56,3.56,0,1,0,3.56,3.56A3.57,3.57,0,0,0,202.34,195.81Z" style="fill:#33EF8A"></path><rect x="202.09" y="199.37" width="0.5" height="30.49" style="fill:#33EF8A"></rect><rect x="204.47" y="199.18" width="0.5" height="30.49" transform="matrix(0.99, -0.16, 0.16, 0.99, -31.02, 34.67)" style="fill:#33EF8A"></rect><rect x="206.8" y="198.62" width="0.5" height="30.49" transform="matrix(0.95, -0.31, 0.31, 0.95, -55.95, 74.45)" style="fill:#33EF8A"></rect><rect x="209.01" y="197.71" width="0.5" height="30.49" transform="translate(-73.87 118.21) rotate(-27)" style="fill:#33EF8A"></rect><rect x="211.05" y="196.46" width="0.5" height="30.49" transform="translate(-84.08 164.63) rotate(-36)" style="fill:#33EF8A"></rect><rect x="212.87" y="194.91" width="0.5" height="30.49" transform="translate(-86.18 212.25) rotate(-45)" style="fill:#33EF8A"></rect><rect x="214.42" y="193.09" width="0.5" height="30.49" transform="translate(-80.05 259.55) rotate(-54)" style="fill:#33EF8A"></rect><rect x="215.67" y="191.05" width="0.5" height="30.49" transform="translate(-65.91 305.02) rotate(-63)" style="fill:#33EF8A"></rect><rect x="216.59" y="188.84" width="0.5" height="30.49" transform="translate(-44.26 347.24) rotate(-72)" style="fill:#33EF8A"></rect><rect x="217.15" y="186.51" width="0.5" height="30.49" transform="translate(-15.88 384.91) rotate(-81)" style="fill:#33EF8A"></rect><rect x="202.34" y="199.12" width="30.49" height="0.5" style="fill:#33EF8A"></rect><rect x="202.15" y="196.73" width="30.49" height="0.5" transform="translate(-28.09 36.37) rotate(-8.98)" style="fill:#33EF8A"></rect><rect x="201.59" y="194.41" width="30.49" height="0.5" transform="translate(-49.49 76.42) rotate(-17.97)" style="fill:#33EF8A"></rect><rect x="200.68" y="192.2" width="30.49" height="0.5" transform="translate(-63.79 118.83) rotate(-26.97)" style="fill:#33EF8A"></rect><rect x="199.43" y="190.16" width="30.49" height="0.5" transform="translate(-70.93 162.64) rotate(-36.02)" style="fill:#33EF8A"></rect><rect x="197.87" y="188.34" width="30.49" height="0.5" transform="translate(-70.93 205.93) rotate(-45)" style="fill:#33EF8A"></rect><rect x="196.05" y="186.79" width="30.49" height="0.5" transform="translate(-64.24 247.95) rotate(-53.98)" style="fill:#33EF8A"></rect><rect x="194.01" y="185.54" width="30.49" height="0.5" transform="translate(-51.22 288.05) rotate(-63.03)" style="fill:#33EF8A"></rect><rect x="191.8" y="184.62" width="30.49" height="0.5" transform="translate(-32.69 324.76) rotate(-72.03)" style="fill:#33EF8A"></rect><rect x="189.48" y="184.06" width="30.49" height="0.5" transform="translate(-9.3 357.74) rotate(-81.02)" style="fill:#33EF8A"></rect><rect x="202.09" y="168.88" width="0.5" height="30.49" style="fill:#33EF8A"></rect><rect x="199.7" y="169.07" width="0.5" height="30.49" transform="translate(-26.37 33.55) rotate(-9)" style="fill:#33EF8A"></rect><rect x="197.38" y="169.63" width="0.5" height="30.49" transform="translate(-47.46 70.12) rotate(-18)" style="fill:#33EF8A"></rect><rect x="195.17" y="170.54" width="0.5" height="30.49" transform="translate(-63.05 108.97) rotate(-27)" style="fill:#33EF8A"></rect><rect x="193.13" y="171.79" width="0.5" height="30.49" transform="translate(-73.01 149.39) rotate(-36)" style="fill:#33EF8A"></rect><rect x="191.31" y="173.35" width="0.5" height="30.49" transform="translate(-77.25 190.69) rotate(-45)" style="fill:#33EF8A"></rect><rect x="189.76" y="175.16" width="0.5" height="30.49" transform="matrix(0.59, -0.81, 0.81, 0.59, -75.72, 232.21)" style="fill:#33EF8A"></rect><rect x="188.51" y="177.2" width="0.5" height="30.49" transform="translate(-68.41 273.26) rotate(-63)" style="fill:#33EF8A"></rect><rect x="187.59" y="179.41" width="0.5" height="30.49" transform="translate(-55.34 313.15) rotate(-72)" style="fill:#33EF8A"></rect><rect x="187.03" y="181.74" width="0.5" height="30.49" transform="translate(-36.58 351.14) rotate(-81)" style="fill:#33EF8A"></rect><rect x="171.85" y="199.12" width="30.49" height="0.5" style="fill:#33EF8A"></rect><rect x="172.04" y="201.5" width="30.49" height="0.5" transform="translate(-29.21 31.72) rotate(-8.98)" style="fill:#33EF8A"></rect><rect x="172.6" y="203.83" width="30.49" height="0.5" transform="translate(-53.81 67.93) rotate(-17.97)" style="fill:#33EF8A"></rect><rect x="173.51" y="206.04" width="30.49" height="0.5" transform="translate(-73.02 108.02) rotate(-26.97)" style="fill:#33EF8A"></rect><rect x="174.76" y="208.08" width="30.49" height="0.5" transform="translate(-86.18 151.56) rotate(-36.02)" style="fill:#33EF8A"></rect><rect x="176.31" y="209.9" width="30.49" height="0.5" transform="translate(-92.49 197) rotate(-45)" style="fill:#33EF8A"></rect><rect x="178.13" y="211.45" width="30.49" height="0.5" transform="translate(-91.57 243.62) rotate(-53.98)" style="fill:#33EF8A"></rect><rect x="180.17" y="212.7" width="30.49" height="0.5" transform="translate(-83 290.56) rotate(-63.03)" style="fill:#33EF8A"></rect><rect x="182.38" y="213.62" width="30.49" height="0.5" transform="translate(-66.79 335.85) rotate(-72.03)" style="fill:#33EF8A"></rect><rect x="184.71" y="214.18" width="30.49" height="0.5" transform="translate(-43.07 378.44) rotate(-81.02)" style="fill:#33EF8A"></rect><circle cx="394.13" cy="199.37" r="30.49" transform="translate(108.49 536.26) rotate(-76.54)" style="fill:#33EF8A"></circle><circle cx="383.8" cy="187.5" r="14.7" style="fill:#fff;opacity:0.15"></circle><circle cx="381.49" cy="184.9" r="10.78" transform="translate(-4.9 359.32) rotate(-50.15)" style="fill:#fff;opacity:0.15"></circle><circle cx="380.16" cy="182.86" r="8.08" style="fill:#fff;opacity:0.15"></circle><path d="M475.23,126.06c-1.52,6.25-3.27,12.4-5.1,18.54s-3.79,12.24-5.78,18.31-4.1,12.14-6.31,18.15c-1.56,4.3-3.16,8.58-4.88,12.83l-.58-.22-.15-.06c1.18-4.41,2.44-8.79,3.75-13.17C458,174.3,460,168.21,462,162.13s4.1-12.13,6.31-18.15S472.72,132,475.23,126.06Z" style="fill:#fff;opacity:0.7000000000000001"></path><path d="M474.25,140.41c-1.25,5.06-2.62,10.07-4,15.08s-2.9,10-4.34,15-3,9.95-4.63,14.91l-2.41,7.41c-.28.81-.54,1.6-.82,2.41-.14,0-.29,0-.43-.09.23-.83.44-1.66.66-2.5l2.08-7.51c1.39-5,2.89-10,4.34-15s3-10,4.63-14.91S472.5,145.32,474.25,140.41Z" style="fill:#fff;opacity:0.5"></path><circle cx="207.93" cy="332.29" r="30.49" style="fill:#33EF8A"></circle><path d="M503.48,189v0a2,2,0,0,1-.12.73.26.26,0,0,1,0,.08,3.23,3.23,0,0,1-.35.66l-.28.36c-.11.11-.22.25-.36.38l-.38.33a14.61,14.61,0,0,1-3.95,2.09l-.36.14a2,2,0,0,1-.26.09,1.45,1.45,0,0,1-.25.09l-.1,0-.34.12a1.76,1.76,0,0,0-.3.1l-.1,0a.55.55,0,0,1-.17.05l-.33.1a1.06,1.06,0,0,1-.19.06h0l-.08,0c-.53.16-1.1.31-1.68.45h-.07c-.3.07-.6.15-.91.21l-1,.22-1.21.24-.91.15c-.73.13-1.48.24-2.27.34a94.33,94.33,0,0,1-15.44.73c-.82,0-1.64-.06-2.45-.11l-1.68-.12-1.3-.11c-1.76-.16-3.47-.36-5.08-.62-.43-.06-.84-.12-1.25-.2-.93-.16-1.84-.35-2.71-.54-.26-.06-.52-.11-.78-.19l-1.09-.28c-.25-.06-.49-.12-.72-.2a1.58,1.58,0,0,1-.31-.09h-.11l0,0h-.09l-.12,0-.41-.12-.12,0a0,0,0,0,1,0,0h0a1,1,0,0,1-.2-.06c-.33-.1-.63-.21-.94-.33a.76.76,0,0,1-.16-.06c-.21-.08-.42-.15-.62-.24a15.37,15.37,0,0,1-2.15-1c-2.53-1.44-3.35-3-2.68-4.45l.08-.18,2.75-6,1.41-3.1c.84-1.86,2-4.33,2.82-6.18l2.83-6.18c.43-.94,1-2.17,1.41-3.09.86-1.86,2-4.34,2.83-6.2s2-4.32,2.82-6.18l1.43-3.09c.84-1.85,2-4.32,2.82-6.19s2-4.32,2.83-6.18c.41-.92,1-2.15,1.41-3.09l2.82-6.18c.84,1.86,2,4.33,2.8,6.2.42.92,1,2.16,1.4,3.09.85,1.86,2,4.33,2.8,6.19s2,4.34,2.82,6.19c.41.93,1,2.17,1.4,3.1.83,1.86,1.95,4.34,2.8,6.19l2.8,6.2,1.4,3.1c.84,1.85,2,4.34,2.81,6.19s1.95,4.34,2.8,6.19c.41.94,1,2.17,1.4,3.11l2.8,6.19h0a.73.73,0,0,1,.07.19,1.34,1.34,0,0,1,.1.38A1.2,1.2,0,0,1,503.48,189Z" style="fill:#ebebeb"></path><path d="M317.06,321H260.71a.52.52,0,0,1,.06-.13l.08-.18c.84-1.83,1.93-4.21,2.74-6,.44-.93,1-2.17,1.42-3.1l2.83-6.18,2.81-6.19c.44-.92,1-2.17,1.42-3.08.86-1.86,2-4.34,2.83-6.2s2-4.33,2.83-6.18c.42-.93,1-2.17,1.42-3.09l2.82-6.19c.85-1.85,2-4.33,2.83-6.18.41-.92,1-2.16,1.41-3.09.84-1.85,2-4.33,2.83-6.18l2.79,6.19,1.41,3.09,2.79,6.19c.84,1.87,2,4.34,2.82,6.2l1.39,3.1c.83,1.85,2,4.34,2.8,6.19s2,4.34,2.81,6.19c.42.94,1,2.17,1.39,3.1.85,1.87,2,4.34,2.82,6.2s1.95,4.34,2.79,6.19c.42.94,1,2.17,1.41,3.11.84,1.85,1.95,4.32,2.79,6.18h0S317.06,320.94,317.06,321Z" style="fill:#ebebeb"></path><g style="isolation:isolate"><path d="M457.63,338.59h-.56c-13.21-.08-24.85-3-28.95-7.4a5.06,5.06,0,0,1-1.61-3.77l.05-.19,31-64.76,30.64,63.22a4.45,4.45,0,0,1,.46,2.15C488.39,333.91,474.79,338.59,457.63,338.59Zm-30.13-11a4.21,4.21,0,0,0,1.34,2.93c3.93,4.17,15.28,7,28.23,7.09,16.35.12,30.35-4.39,30.63-9.8a3.35,3.35,0,0,0-.36-1.67l-29.73-61.35Z" style="fill:#ebebeb"></path><g style="clip-path:url(#freepik--clip-path-2--inject-62)"><g style="isolation:isolate"><path d="M457.19,338.22h-.12c-13.11-.08-24.64-3-28.68-7.29a4.72,4.72,0,0,1-1.51-3.49l0-.05,30.83-64.33Zm-30.06-10.74a4.5,4.5,0,0,0,1.44,3.28c4,4.22,15.38,7.11,28.38,7.21l.52-73.79Z" style="fill:#ebebeb"></path><path d="M457.61,338.22h-.67v-.13l.54-75,.24.5,30.6,64.22v0C488,333.59,474.3,338.22,457.61,338.22Zm-.41-.25h.41c16.53,0,30.12-4.51,30.46-10.13l-30.35-63.68Z" style="fill:#ebebeb"></path><path d="M488.3,328.31l-2-4.12c-4.25-4.07-15.46-6.82-28.19-6.9V317c12.36.07,23.32,2.68,27.91,6.56l-28.56-59.93.23-.1L486.54,324l.28.28a4.75,4.75,0,0,1,1.5,3.5Zm-1.41-3.53,1.16,2.44A4.51,4.51,0,0,0,486.89,324.78Z" style="fill:#ebebeb"></path></g><path d="M457.61,338.22h-.54c-13.11-.08-24.64-3-28.68-7.29a4.72,4.72,0,0,1-1.51-3.49l0-.05,30.7-64.06.12.23,30.18,62.29a4,4,0,0,1,.42,2C488,333.59,474.3,338.22,457.61,338.22Zm-30.48-10.74a4.5,4.5,0,0,0,1.44,3.28c4,4.23,15.45,7.13,28.5,7.21h.54c16.56,0,30.17-4.52,30.46-10.17a3.82,3.82,0,0,0-.39-1.84l-30.08-62Z" style="fill:#ebebeb"></path></g></g><g style="isolation:isolate"><path d="M426.38,329.92l.13-2.5a4.33,4.33,0,0,1,.46-1.73l30.18-62.29.9.43h0Z" style="fill:#ebebeb"></path><g style="clip-path:url(#freepik--clip-path-3--inject-62)"><g style="isolation:isolate"><path d="M426.85,328.06l0-.62a4.9,4.9,0,0,1,1.44-3l29.4-61.34v.54l.53,53.67h-.67c-13.53,0-25.09,3-29,7.2Zm1-2.7a4.39,4.39,0,0,0-.58,1.22Zm29.61-61.2-28.63,59.73c4.4-4,15.66-6.85,28.75-6.85H458Z" style="fill:#ebebeb"></path></g><path d="M426.85,328.06l0-.62a4.07,4.07,0,0,1,.43-1.59l27.16-56.06,3-6.23.23.11Zm5.46-12L427.53,326a3.51,3.51,0,0,0-.24.61Z" style="fill:#ebebeb"></path></g></g><g style="isolation:isolate"><path d="M457.6,264.13l-.68-.16h0l.23-1h0a3.14,3.14,0,0,0,.45,0,2,2,0,0,0,.44,0h0l.24,1h0Z" style="fill:#ebebeb"></path><g style="clip-path:url(#freepik--clip-path-4--inject-62)"><g style="isolation:isolate"><path d="M457.78,263.83l-.4-.17a1.32,1.32,0,0,1-.8-.26.28.28,0,0,1-.09-.21V263l.94.39h.25Z" style="fill:#ebebeb"></path><polygon points="457.57 263.74 457.06 263.62 457.12 263.37 457.63 263.5 457.57 263.74" style="fill:#ebebeb"></polygon><path d="M457.51,263.79l-.08-.37h.34l1-.39v.2c0,.26-.43.4-.88.44Z" style="fill:#ebebeb"></path><polygon points="457.63 263.74 457.57 263.5 458.06 263.38 458.12 263.62 457.63 263.74" style="fill:#ebebeb"></polygon></g><path d="M457.6,263.75l-.58-.14h0l.06-.24h0a2.06,2.06,0,0,0,.52.06,2.51,2.51,0,0,0,.55-.06h0l.06.24Z" style="fill:#ebebeb"></path></g></g><g style="isolation:isolate"><path d="M488.31,325.66c-2.37-4.9-15.34-8.66-30.16-8.74-15.33-.08-28.79,3.66-31.25,8.73l-.9-.43,30.18-62.29c.25-.51,1.08-.57,1.44-.56s1.16.06,1.4.56l30.19,62.28h0Zm-30.72-9.75h.57c12.56.07,23.55,2.68,28.59,6.51l-28.59-59a1.63,1.63,0,0,0-.54-.08,1.89,1.89,0,0,0-.58.08L428.48,322.4C433.58,318.5,444.75,315.91,457.59,315.91Zm.61-52.44Zm-1.12-.1Z" style="fill:#ebebeb"></path><g style="clip-path:url(#freepik--clip-path-5--inject-62)"><g style="isolation:isolate"><path d="M489.28,327.91l-2-4.24c-4.38-4.2-16-7.05-29.11-7.13v-.25c12.77.08,24.08,2.77,28.82,6.79l-28.52-59.84v0c0-.06-.29-.21-.84-.21v-.25a1.49,1.49,0,0,1,1,.27.22.22,0,0,1,.08.16l28.76,60.34a3.83,3.83,0,0,1,.28.29,4.86,4.86,0,0,1,1.56,3.6Zm-1.46-3.66,1.22,2.57A4.87,4.87,0,0,0,487.82,324.25Z" style="fill:#ebebeb"></path><rect x="471.68" y="260.16" width="0.25" height="64.65" transform="translate(-78.66 220.83) rotate(-24.38)" style="fill:#ebebeb"></rect><polygon points="473.9 318.02 458 262.95 458.24 262.88 474.14 317.95 473.9 318.02" style="fill:#ebebeb"></polygon><path d="M425.87,327.64l0-.62a5.06,5.06,0,0,1,1.48-3.12l29.12-60.73c.05-.3.61-.43,1.12-.42V263h0c-.53,0-.84.14-.86.21v0l-28.82,60.13c4.53-4.15,16.17-7.09,29.69-7.09h.56v.25h-.55c-14,0-25.92,3.12-30,7.44Zm1.07-2.82a5.12,5.12,0,0,0-.65,1.36Z" style="fill:#ebebeb"></path><polygon points="430.73 321.65 430.5 321.55 456.65 262.98 456.88 263.08 430.73 321.65" style="fill:#ebebeb"></polygon></g></g></g><g style="isolation:isolate"><g style="isolation:isolate"><rect x="406.35" y="297.81" width="74.11" height="0.25" transform="translate(5.63 604.09) rotate(-68.87)" style="fill:#ebebeb"></rect><polygon points="441.31 336.47 441.07 336.42 456.97 263.47 457.21 263.52 441.31 336.47" style="fill:#ebebeb"></polygon><path d="M457.61,338.14h-.68V338l.53-74.6h.13c.54,0,.86-.15.87-.21l0-.5.21.45,30.61,64.22v0C489,333.37,474.83,338.14,457.61,338.14Zm-.43-.25h.43c17.07,0,31.1-4.65,31.44-10.46l-30.49-64a1.68,1.68,0,0,1-.85.22Z" style="fill:#ebebeb"></path><polygon points="472.94 336.66 457.96 263.52 458.21 263.48 473.19 336.61 472.94 336.66" style="fill:#ebebeb"></polygon><polygon points="484.48 332.88 458.33 263.43 458.56 263.34 484.71 332.79 484.48 332.88" style="fill:#ebebeb"></polygon><path d="M489.28,327.91l-2-4.24c-4.38-4.2-16-7.05-29.11-7.13v-.25c12.77.08,24.08,2.77,28.82,6.79l-28.52-59.84v0c0-.06-.29-.21-.84-.21v-.25a1.49,1.49,0,0,1,1,.27.22.22,0,0,1,.08.16l28.76,60.34a3.83,3.83,0,0,1,.28.29,4.86,4.86,0,0,1,1.56,3.6Zm-1.46-3.66,1.22,2.57A4.87,4.87,0,0,0,487.82,324.25Z" style="fill:#ebebeb"></path></g></g><g style="isolation:isolate"><path d="M457.62,338.59h-.55a76.46,76.46,0,0,1-17.21-1.92l-.57-.14.24-1a78.36,78.36,0,0,0,17.52,2,79.63,79.63,0,0,0,18.63-2l.24,1h0l-.56.14A77.14,77.14,0,0,1,457.62,338.59Z" style="fill:#ebebeb"></path><g style="clip-path:url(#freepik--clip-path-6--inject-62)"><g style="isolation:isolate"><path d="M457.23,338.22h-.16a76.21,76.21,0,0,1-17.44-2c-5.62-1.33-10-3.27-12.18-5.61a4.87,4.87,0,0,1-1.55-3.6v-.18l1.23.53v.08a4.52,4.52,0,0,0,1.44,3.31c2,2.15,6,4,11.11,5.23a79.32,79.32,0,0,0,17.37,1.9h.1Zm-31.09-11a4.72,4.72,0,0,0,1.49,3.24,12.27,12.27,0,0,0,2.67,2.06,11.08,11.08,0,0,1-1.91-1.58,4.75,4.75,0,0,1-1.51-3.4Z" style="fill:#ebebeb"></path><polygon points="441.67 336.69 441.16 336.57 441.22 336.33 441.73 336.45 441.67 336.69" style="fill:#ebebeb"></polygon><path d="M457.61,338.22H457l-.08-.33h.16A79.93,79.93,0,0,0,475.54,336c7.45-1.84,12.36-4.81,12.53-8.18v-.07l1.24-.52v.2c-.19,3.67-5.63,6.89-13.81,8.82A76.09,76.09,0,0,1,457.61,338.22Zm30.71-10.32c-.13,1.77-1.52,3.43-3.88,4.88,2.74-1.52,4.4-3.28,4.6-5.18Z" style="fill:#ebebeb"></path><polygon points="472.61 336.88 472.55 336.63 473.04 336.52 473.1 336.76 472.61 336.88" style="fill:#ebebeb"></polygon></g><path d="M457.62,338.22h-.55A76.82,76.82,0,0,1,440,336.31l-.56-.14h0l.06-.24a79.19,79.19,0,0,0,17.61,2h.56a78.92,78.92,0,0,0,18.16-2l.06.24h0l-.57.14A76.78,76.78,0,0,1,457.62,338.22Z" style="fill:#ebebeb"></path></g></g><g style="isolation:isolate"><path d="M439.86,336.67h0l-.11,0-.46-.11c-8.94-2.16-14-5.63-13.76-9.53l0-.71,2,.83,0,.35c-.16,3.15,4.61,6.28,12.47,8.2l.12,0Z" style="fill:#ebebeb"></path><g style="clip-path:url(#freepik--clip-path-7--inject-62)"><g style="isolation:isolate"><path d="M457.23,338.22h-.16a76.21,76.21,0,0,1-17.44-2c-5.62-1.33-10-3.27-12.18-5.61a4.87,4.87,0,0,1-1.55-3.6v-.18l1.23.53v.08a4.52,4.52,0,0,0,1.44,3.31c2,2.15,6,4,11.11,5.23a79.32,79.32,0,0,0,17.37,1.9h.1Zm-31.09-11a4.72,4.72,0,0,0,1.49,3.24,12.27,12.27,0,0,0,2.67,2.06,11.08,11.08,0,0,1-1.91-1.58,4.75,4.75,0,0,1-1.51-3.4Z" style="fill:#ebebeb"></path><polygon points="430.88 332.87 430.02 332.63 430.09 332.38 430.95 332.63 430.88 332.87" style="fill:#ebebeb"></polygon></g></g></g><g style="isolation:isolate"><path d="M475.35,336.67l-.24-1,.13,0c7.65-1.87,12.3-4.81,12.46-7.88a4.17,4.17,0,0,0-1.34-3c-3.93-4.16-15.27-7-28.23-7.08-16.34-.09-30.35,4.39-30.62,9.8l0,.72-2-.84,0-.35c.32-6.32,14.63-11.21,32.63-11.08,13.63.08,25.63,3.15,29.87,7.63a5.24,5.24,0,0,1,1.65,3.88c-.19,3.72-5.21,7-13.77,9.1l-.44.11-.12,0Zm11-13.3a8.31,8.31,0,0,1,.74.7,5.41,5.41,0,0,1,1.6,3.19,4.39,4.39,0,0,0-1.39-3A8.93,8.93,0,0,0,486.35,323.37Zm-59.79,3.34,0,0a6.34,6.34,0,0,1,2.23-3.34A5.61,5.61,0,0,0,426.56,326.71Z" style="fill:#ebebeb"></path><g style="clip-path:url(#freepik--clip-path-8--inject-62)"><g style="isolation:isolate"><path d="M457.61,338.22H457l-.08-.33h.16A79.93,79.93,0,0,0,475.54,336c7.45-1.84,12.36-4.81,12.53-8.18v-.07l1.24-.52v.2c-.19,3.67-5.63,6.89-13.81,8.82A76.09,76.09,0,0,1,457.61,338.22Zm30.71-10.32c-.13,1.77-1.52,3.43-3.88,4.88,2.74-1.52,4.4-3.28,4.6-5.18Z" style="fill:#ebebeb"></path><polygon points="483.78 333.19 483.72 332.95 484.56 332.71 484.63 332.95 483.78 333.19" style="fill:#ebebeb"></polygon><path d="M488.06,328v-.2a4.47,4.47,0,0,0-1.43-3.3c-4-4.24-15.45-7.13-28.5-7.21H458l0-1h.13c13.53.08,25.42,3.1,29.59,7.52a4.86,4.86,0,0,1,1.56,3.6v.08Zm-29.8-11c13.07.1,24.53,3,28.56,7.28a4.83,4.83,0,0,1,1.51,3.3l.73-.3a4.69,4.69,0,0,0-1.49-3.34c-4.11-4.36-15.88-7.34-29.29-7.44Z" style="fill:#ebebeb"></path><rect x="484.2" y="322.09" width="1.03" height="0.25" transform="translate(-97.32 324.26) rotate(-33.81)" style="fill:#ebebeb"></rect><polygon points="473.61 318.76 473.4 318.61 473.92 317.91 474.12 318.06 473.61 318.76" style="fill:#ebebeb"></polygon><path d="M427.12,327.63l-1.22-.52V327c.3-5.95,14.47-10.73,31.7-10.73h.68l0,1h-.67c-16.56,0-30.17,4.52-30.46,10.16Zm-1-.68.75.31c.56-5.69,14.18-10.22,30.7-10.22H458l0-.5h-.43C440.59,316.54,426.59,321.16,426.15,327Z" style="fill:#ebebeb"></path><polygon points="442.52 318.57 442.04 317.87 442.24 317.73 442.73 318.43 442.52 318.57" style="fill:#ebebeb"></polygon><polygon points="431.38 322.29 430.54 321.7 430.69 321.5 431.53 322.09 431.38 322.29" style="fill:#ebebeb"></polygon></g></g></g><path d="M419.74,355.66A31.27,31.27,0,0,1,407.11,353,31.84,31.84,0,0,1,388,325.42a32,32,0,0,1,63.79-3.95,30.87,30.87,0,0,1,0,4.71,31.54,31.54,0,0,1-15.47,24.9A32.21,32.21,0,0,1,419.74,355.66Zm0-63a31,31,0,1,0,31,33.45l.1-2.45c0-.68,0-1.36-.07-2a29.64,29.64,0,0,0-7.92-18.05l-.54-.57h0a31.36,31.36,0,0,0-22.45-9.49v-.84Z" style="fill:#33EF8A"></path><g style="clip-path:url(#freepik--clip-path-9--inject-62)"><path d="M419.74,355.29a31.07,31.07,0,0,1-12.48-2.61,31.59,31.59,0,1,1,44.13-31.16,31.49,31.49,0,0,1-15.31,29.24A31.93,31.93,0,0,1,419.74,355.29Zm0-63a31.35,31.35,0,1,0,31.36,33.85l.09-2.46c0-.71,0-1.42-.07-2.12a30,30,0,0,0-8-18.23l-.46-.49h0a31.76,31.76,0,0,0-22.81-9.7v-.25a32,32,0,0,1,23.21,10h0l.24.26a31.82,31.82,0,0,1,4.37,6,31.79,31.79,0,0,0-27.92-16.89Z" style="fill:#33EF8A"></path><g style="isolation:isolate"><path d="M451.46,323.81h-.25v-.26a2.19,2.19,0,0,0-.62-1.23c-2.94-3.18-15.63-5.53-30.19-5.59h-.13v-.13c0-12.87-.13-20.91-.29-23.47h-.27V293c.07-.85.12-.93.26-.93s.16,0,.23.81c17.17.25,31.1,13.91,31.25,30.66Zm-30.94-7.34c14.81.07,27.23,2.4,30.25,5.68a3,3,0,0,1,.42.55c-.59-16.22-14.22-29.32-31-29.58.07.92.13,2.63.18,5.81C420.48,303.32,420.52,309.54,420.52,316.47Z" style="fill:#33EF8A"></path><path d="M435.86,297.26l-.25,0a.93.93,0,0,0-.29-.7c-1.48-1.6-7.86-2.78-15.19-2.8v-.25c7.51,0,13.83,1.21,15.37,2.88A1.2,1.2,0,0,1,435.86,297.26Z" style="fill:#33EF8A"></path><path d="M447.16,308.31l-.25,0a1.71,1.71,0,0,0-.53-1.26c-2.53-2.75-13.49-4.78-26.06-4.83V302c12.84.05,23.63,2.07,26.24,4.91A1.89,1.89,0,0,1,447.16,308.31Z" style="fill:#33EF8A"></path><path d="M447.44,320.21h-.25c0-8.63-3.3-16.49-9-21.55a22.92,22.92,0,0,0-18.28-5.54l0-.25a23.19,23.19,0,0,1,18.49,5.61C444.11,303.58,447.44,311.5,447.44,320.21Z" style="fill:#33EF8A"></path><path d="M436.34,317.62h-.25c0-11-3.16-20-8.24-23.52a8.35,8.35,0,0,0-8-1l-.08-.23a8.57,8.57,0,0,1,8.19,1C433.14,297.48,436.34,306.57,436.34,317.62Z" style="fill:#33EF8A"></path><path d="M388.49,323.56h-.25a30.09,30.09,0,0,1,9-21.46,31.61,31.61,0,0,1,22.5-9.22h0c.06-.72.11-.81.24-.81h0c.17,0,.3,0,.42,6.87.08,4.42.12,10.69.12,17.66v.13h-.68C402.79,316.72,388.79,319.76,388.49,323.56Zm31.23-30.44a31.41,31.41,0,0,0-22.33,9.15,29.89,29.89,0,0,0-8.89,20.46c2-3.54,15.37-6.26,31.35-6.26h.42c0-12.93-.14-21-.3-23.42v.07h-.24Z" style="fill:#33EF8A"></path><path d="M404.09,297.13l-.25,0c.16-2,7.16-3.62,16-3.62h.29v.25h-.27C411.42,293.74,404.23,295.28,404.09,297.13Z" style="fill:#33EF8A"></path><path d="M392.79,308.1l-.25,0c.27-3.5,12.47-6.2,27.78-6.13v.25h-.48C405.13,302.2,393.05,304.82,392.79,308.1Z" style="fill:#33EF8A"></path><path d="M404.56,317.5h-.25c0-11.32,3.12-20.46,8.15-23.86a7.66,7.66,0,0,1,7.44-.76l-.1.23a7.45,7.45,0,0,0-7.21.73C407.64,297.2,404.56,306.26,404.56,317.5Z" style="fill:#33EF8A"></path><path d="M393.07,320h-.25c0-8.81,3.32-16.77,9.12-21.83a22.32,22.32,0,0,1,17.93-5.29l0,.25a22,22,0,0,0-17.72,5.23C396.36,303.36,393.07,311.25,393.07,320Z" style="fill:#33EF8A"></path><path d="M419.42,330.88h-.12c-14.86-.06-27.35-2.39-30.37-5.68a2.18,2.18,0,0,1-.69-1.66,30.09,30.09,0,0,1,9-21.45,31.61,31.61,0,0,1,22.5-9.22H420V293c-.3,3.91-.55,20.84-.55,37.76Zm.29-37.76a31.41,31.41,0,0,0-22.32,9.15,29.84,29.84,0,0,0-8.9,21.28,1.94,1.94,0,0,0,.62,1.48c2.93,3.18,15.56,5.53,30.06,5.6C419.18,313.94,419.42,297.25,419.71,293.12Z" style="fill:#33EF8A"></path><path d="M419.57,300.88c-7.51,0-13.83-1.21-15.37-2.88a1.16,1.16,0,0,1-.36-.89l.25,0a.93.93,0,0,0,.29.7c1.47,1.6,7.86,2.78,15.19,2.8Z" style="fill:#33EF8A"></path><path d="M419.37,314.43c-12.83-.05-23.62-2.07-26.23-4.91a1.86,1.86,0,0,1-.6-1.44l.25,0a1.71,1.71,0,0,0,.53,1.26c2.53,2.74,13.49,4.77,26.06,4.82Z" style="fill:#33EF8A"></path><path d="M392.51,327.14h-.25c0-17,12.37-32.35,27.57-34.27l0,.25C404.78,295,392.51,310.29,392.51,327.14Z" style="fill:#33EF8A"></path><path d="M403.61,329.73h-.25c0-17,7.38-33.5,16.45-36.85l.08.23C410.92,296.43,403.61,312.86,403.61,329.73Z" style="fill:#33EF8A"></path><path d="M419.85,330.88h-.68v-.12c0-16.93.25-33.87.55-37.77v-.12h.12c17.43.07,31.61,13.94,31.61,30.93C451.15,327.74,437,330.88,419.85,330.88Zm-.43-.25h.44c17.05,0,31.05-3,31.35-6.84,0-16.8-14-30.54-31.24-30.67C419.67,297.22,419.43,313.92,419.42,330.63Z" style="fill:#33EF8A"></path><path d="M419.86,300.88h-.29v-.25h.27c8.44,0,15.63-1.54,15.77-3.39l.25,0C435.7,299.3,428.7,300.88,419.86,300.88Z" style="fill:#33EF8A"></path><path d="M419.87,314.43h-.49v-.25h.48c14.71,0,26.79-2.62,27.05-5.89l.25,0C446.89,311.76,435,314.43,419.87,314.43Z" style="fill:#33EF8A"></path><path d="M435.39,329.85h-.25c0-16.87-6.88-33.35-15.34-36.74l.1-.23C428.44,296.3,435.39,312.89,435.39,329.85Z" style="fill:#33EF8A"></path><path d="M446.88,327.36h-.25c0-16.86-12-32.22-26.8-34.24l0-.25C434.76,294.91,446.88,310.38,446.88,327.36Z" style="fill:#33EF8A"></path><path d="M420,354.48h-.27v-.14c.31-3.9.55-20.83.55-37.75v-.12h.13c14.86.06,27.35,2.39,30.37,5.68a2.18,2.18,0,0,1,.69,1.65,30.09,30.09,0,0,1-9,21.46A31.63,31.63,0,0,1,420,354.48Zm.54-37.76c0,16.69-.24,33.37-.54,37.51a31.41,31.41,0,0,0,22.33-9.15,29.84,29.84,0,0,0,8.9-21.28h0a2,2,0,0,0-.62-1.48C447.66,319.14,435,316.79,420.52,316.72Z" style="fill:#33EF8A"></path><path d="M447.16,339.27l-.25,0a1.71,1.71,0,0,0-.53-1.26c-2.53-2.74-13.49-4.77-26.06-4.82v-.25c12.84.05,23.63,2.07,26.24,4.91A1.86,1.86,0,0,1,447.16,339.27Z" style="fill:#33EF8A"></path><path d="M435.86,350.24l-.25,0a.93.93,0,0,0-.29-.7c-1.48-1.6-7.86-2.78-15.19-2.8v-.25c7.51,0,13.83,1.21,15.37,2.88A1.2,1.2,0,0,1,435.86,350.24Z" style="fill:#33EF8A"></path><path d="M419.87,354.48l0-.25c15.09-1.9,27.36-17.17,27.36-34h.25C447.44,337.18,435.07,352.56,419.87,354.48Z" style="fill:#33EF8A"></path><path d="M419.89,354.47l-.08-.23c9-3.32,16.28-19.75,16.28-36.62h.25C436.34,334.59,429,351.12,419.89,354.47Z" style="fill:#33EF8A"></path><path d="M420,354.48h-.11c-17.43-.07-31.61-13.94-31.61-30.93.31-4,14.73-7.14,32.16-7.08h.12v.12c0,16.92-.24,33.87-.55,37.77Zm-.13-37.76c-17,0-31,3-31.34,6.84,0,16.8,14,30.54,31.24,30.67.3-4.1.54-20.8.54-37.51Z" style="fill:#33EF8A"></path><path d="M392.79,339.06l-.25,0c.27-3.49,12.47-6.19,27.78-6.12v.25h-.48C405.13,333.17,393.05,335.79,392.79,339.06Z" style="fill:#33EF8A"></path><path d="M404.09,350.11l-.25,0c.16-2,7.16-3.63,16-3.63h.29v.25h-.27C411.42,346.71,404.23,348.26,404.09,350.11Z" style="fill:#33EF8A"></path><path d="M419.8,354.47c-8.54-3.42-15.49-20-15.49-37h.25c0,16.87,6.88,33.35,15.34,36.74Z" style="fill:#33EF8A"></path><path d="M419.83,354.48c-14.89-2-27-17.51-27-34.49h.25c0,16.86,12,32.22,26.8,34.24Z" style="fill:#33EF8A"></path><path d="M419.73,355.29h0c-.08,0-.16,0-.23-.81-17.17-.26-31.1-13.91-31.25-30.66v-.28h.25v.26a2.13,2.13,0,0,0,.62,1.22c2.94,3.19,15.63,5.54,30.19,5.6h.12v.13c0,12.86.14,20.91.3,23.47H420v.13C419.91,355.19,419.87,355.29,419.73,355.29Zm-31.22-30.64c.59,16.22,14.22,29.32,31,29.58-.07-.92-.13-2.63-.18-5.81-.08-4.39-.12-10.62-.13-17.54-14.8-.07-27.22-2.4-30.24-5.68A3,3,0,0,1,388.51,324.65Z" style="fill:#33EF8A"></path><path d="M419.38,345.4c-12.84,0-23.63-2.07-26.24-4.91a1.89,1.89,0,0,1-.6-1.45l.25,0a1.71,1.71,0,0,0,.53,1.26c2.53,2.75,13.49,4.78,26.06,4.83Z" style="fill:#33EF8A"></path><path d="M419.57,353.86c-7.51,0-13.83-1.21-15.37-2.88a1.17,1.17,0,0,1-.36-.89l.25,0a.93.93,0,0,0,.29.7c1.47,1.6,7.86,2.77,15.19,2.8Z" style="fill:#33EF8A"></path><path d="M416.75,354.68a23,23,0,0,1-15.37-5.81c-5.79-5.1-9.12-13-9.12-21.73h.25c0,8.63,3.3,16.49,9,21.55a22.88,22.88,0,0,0,18.28,5.54l0,.25A25.39,25.39,0,0,1,416.75,354.68Z" style="fill:#33EF8A"></path><path d="M416.67,355.07a8.59,8.59,0,0,1-5-1.62c-5.14-3.58-8.34-12.67-8.34-23.72h.25c0,11,3.16,20,8.24,23.52a8.35,8.35,0,0,0,8,1l.08.23A9.25,9.25,0,0,1,416.67,355.07Z" style="fill:#33EF8A"></path><path d="M419.73,355.29h0c-.17,0-.3,0-.42-6.87-.08-4.42-.13-10.69-.13-17.66v-.13h.69c17.05,0,31.05-3,31.35-6.84h.25a30.09,30.09,0,0,1-9,21.46,31.63,31.63,0,0,1-22.5,9.22h0C419.91,355.2,419.86,355.29,419.73,355.29Zm-.31-24.41c0,12.92.15,21,.31,23.42v-.07H420a31.41,31.41,0,0,0,22.33-9.15,29.89,29.89,0,0,0,8.89-20.46c-2,3.54-15.37,6.26-31.35,6.26Z" style="fill:#33EF8A"></path><path d="M419.87,345.4h-.49v-.25h.48c14.71,0,26.79-2.62,27.05-5.9l.25,0C446.89,342.73,435,345.4,419.87,345.4Z" style="fill:#33EF8A"></path><path d="M419.86,353.86h-.29v-.25h.27c8.44,0,15.63-1.54,15.77-3.39l.25,0C435.7,352.28,428.7,353.86,419.86,353.86Z" style="fill:#33EF8A"></path><path d="M422.9,355.1a8.26,8.26,0,0,1-3.1-.63l.1-.23a7.43,7.43,0,0,0,7.2-.73c5-3.36,8-12.42,8-23.66h.25c0,11.32-3.12,20.46-8.15,23.86A7.65,7.65,0,0,1,422.9,355.1Z" style="fill:#33EF8A"></path><path d="M423.06,354.7a23.69,23.69,0,0,1-3.23-.22l0-.25A22,22,0,0,0,437.59,349c5.75-5,9-12.9,9-21.64h.25c0,8.81-3.33,16.77-9.12,21.83A22.2,22.2,0,0,1,423.06,354.7Z" style="fill:#33EF8A"></path></g></g><path d="M487.34,326.12h0c-2.3-4.73-14.85-8.37-29.21-8.45-14.82-.1-27.88,3.54-30.26,8.45l-.9-.43h0l30.63-63.21,30.64,63.22h0Zm-29.75-9.46h.55c12.13.07,22.75,2.58,27.65,6.27L457.6,264.77l-28.17,58.14C434.4,319.15,445.2,316.66,457.59,316.66Z" style="fill:#ebebeb"></path><g style="clip-path:url(#freepik--clip-path--inject-62)"><g style="isolation:isolate"><path d="M488.3,328.31l-2-4.12c-4.25-4.07-15.46-6.82-28.19-6.9V317c12.36.07,23.32,2.68,27.91,6.56l-28.56-59.93.23-.1L486.54,324l.28.28a4.75,4.75,0,0,1,1.5,3.5Zm-1.41-3.53,1.16,2.44A4.51,4.51,0,0,0,486.89,324.78Z" style="fill:#ebebeb"></path><rect x="470.82" y="260.74" width="0.25" height="64.65" transform="translate(-78.98 220.53) rotate(-24.38)" style="fill:#ebebeb"></rect><path d="M426.85,328.06l0-.62a4.9,4.9,0,0,1,1.44-3l29.17-60.85.23.1-28.87,60.22c4.4-4,15.66-6.85,28.75-6.85h.54v.25h-.55c-13.53,0-25.09,3-29,7.2Zm1-2.7a4.39,4.39,0,0,0-.58,1.22Z" style="fill:#ebebeb"></path><polygon points="442.74 318.54 442.5 318.47 457.48 263.59 457.72 263.65 442.74 318.54" style="fill:#ebebeb"></polygon></g><path d="M487.68,326h0c-2.39-4.93-14.81-8.57-29.53-8.66h-.53c-14.79,0-27.67,3.7-30.08,8.67l-.22-.11,27.16-56.06,3-6.23.11-.23.12.23,30.18,62.28h0ZM457.58,317h.56c13.42.08,25,3.13,28.82,7.43L457.6,263.91l-2.9,6-26.44,54.56C432.18,320.06,443.88,317,457.58,317Z" style="fill:#ebebeb"></path></g></g><g id="freepik--Character--inject-62"><path d="M655,441.82l-144.59.62c-35.14-27.6-38.77-68.48-13.7-93.26,15.18-15,34.44-12,52.79-14.35h0a54,54,0,0,0,18.61-5.46c18.89-10,29.54-33.48,45.44-53.25q3-3.72,6.22-7.22c13.07-13.95,39.08-14.41,52.69,5.21C707.05,324,691.21,398.15,655,441.82Z" style="fill:#33EF8A"></path><path d="M655,441.82l-144.59.62c-35.14-27.6-38.77-68.48-13.7-93.26,15.18-15,34.44-12,52.79-14.35h0a54,54,0,0,0,18.61-5.46c18.89-10,29.54-33.48,45.44-53.25q3-3.72,6.22-7.22c13.07-13.95,39.08-14.41,52.69,5.21C707.05,324,691.21,398.15,655,441.82Z" style="opacity:0.2"></path><path d="M658.18,327.76c-3.79,59.31-72.3,81.46-115.08,63.69-37.21-15.46-25-50.72,6.37-56.62h0a54,54,0,0,0,18.61-5.46c18.89-10,29.54-33.48,45.44-53.25C637.24,263.81,661,284.32,658.18,327.76Z" style="opacity:0.1"></path><path d="M523.14,452.2c2.17-.75,51.7-38.57,52.68-41.2.37-1-4.72-8.54-11.12-17.47-1.38-1.92-2.82-3.91-4.3-5.91-9.55-13-20-26.64-20-26.64l-33.21,25.2,20.91,25.95,4.59,5.7s-12.49,23-13.25,26S521,452.94,523.14,452.2Z" style="fill:#f7a9a0"></path><path d="M555.27,380.66c1.69,2.28,3.42,4.63,5.13,7,1.48,2,2.92,4,4.3,5.91,6.41,8.93,11.49,16.47,11.11,17.47-1,2.63-50.5,40.45-52.68,41.2s-4.43-5.41-3.68-8.41,13.25-26,13.25-26l-4.59-5.7-4.67-5.79Z" style="fill:#ebebeb"></path><path d="M522.9,452.66c2.21-.77,52.41-39.46,53.39-42.15.46-1.24-7.33-12.26-15.79-23.71l-32.73,25.08,4.69,5.78s-12.59,23.41-13.35,26.47S520.7,453.42,522.9,452.66Z" style="fill:#33EF8A"></path><path d="M522.07,450.1c8.26-6.7,42.19-32.92,50.86-38.91.07,0,.11,0,0,.06-8,6.81-42.18,32.75-50.79,39C522,450.37,521.9,450.24,522.07,450.1Z" style="fill:#263238"></path><path d="M529.84,416.7c2.83-3.17,7.27-5.78,11.62-5.37.17,0,.15.25,0,.3a58.93,58.93,0,0,0-11.3,5.48A.27.27,0,0,1,529.84,416.7Z" style="fill:#263238"></path><path d="M528.56,420c2.83-3.17,7.27-5.78,11.62-5.37.17,0,.15.25,0,.3a58.93,58.93,0,0,0-11.3,5.48A.27.27,0,0,1,528.56,420Z" style="fill:#263238"></path><path d="M527.28,423.27c2.83-3.17,7.27-5.79,11.62-5.38.17,0,.15.26,0,.31a58.35,58.35,0,0,0-11.3,5.48A.27.27,0,0,1,527.28,423.27Z" style="fill:#263238"></path><path d="M526,426.55c2.83-3.17,7.27-5.78,11.62-5.38.17,0,.15.26,0,.31a58.93,58.93,0,0,0-11.3,5.48A.27.27,0,0,1,526,426.55Z" style="fill:#263238"></path><path d="M522.94,417.33c3.74,0,7.37-1.59,10.88-2.69a.51.51,0,0,0,.2-.81.11.11,0,0,0,0-.18,22.29,22.29,0,0,0-11-3.65c-2.28-.1-5.32,1-5.24,3.76C517.89,416.4,520.75,417.32,522.94,417.33Zm-2.9-2c-3.38-3.19,2-4.29,3.66-4.15a24.87,24.87,0,0,1,3.22.54,65.7,65.7,0,0,1,6.44,2c-1.76.43-3.47,1-5.21,1.51C526.08,415.81,521.91,417.07,520,415.32Z" style="fill:#263238"></path><path d="M541.17,400.08c-2.39-1.44-4.81.68-5.85,2.71a22.23,22.23,0,0,0-2.22,11.33c0,.09.08.11.15.1a.51.51,0,0,0,.81.22c2.68-2.51,5.86-4.87,7.7-8.14C542.83,404.39,543.44,401.45,541.17,400.08Zm-3.82,9.71c-1.29,1.27-2.64,2.47-3.88,3.79a67.08,67.08,0,0,1,1.44-6.58,23.39,23.39,0,0,1,1.11-3.07c.71-1.53,4.31-5.66,5.41-1.15C542,405.27,538.88,408.28,537.35,409.79Z" style="fill:#263238"></path><path d="M472.62,335.66c2.24,17,44,65.91,48.86,71.53l1.1,1.28,34.57-26.57-.4-.51-30.44-39.86s50.34,29.37,75.53,16c11.3-6,19.69-16.63,19.69-16.63l-32.87-17.53s-9.1,2.94-14.91,2.09c-20-2.93-64.95-20-75.6-19.55C484.41,306.52,470.57,320.1,472.62,335.66Z" style="fill:#37474f"></path><path d="M515.38,326.71a42.12,42.12,0,0,1,3.14,4c1.07,1.42,2.17,2.81,3.24,4.22l0,.05-.57-1.24c-.68-1.41-1.23-2.86-2-4.2-.05-.08.08-.16.13-.08.82,1.34,1.78,2.6,2.49,4,.33.66.64,1.32.93,2,.17.38.33.75.47,1.13a4.3,4.3,0,0,1,.2.54c.48.65,1,1.31,1.42,2,1,1.49,1.93,3.06,3,4.53.05.08-.07.15-.13.08-1-1.39-2.23-2.68-3.29-4.05s-2.12-2.84-3.14-4.29-2-2.84-3-4.26a43.24,43.24,0,0,1-3-4.37S515.33,326.66,515.38,326.71Z" style="fill:#263238"></path><path d="M572.79,301.31l6.74,1.4a21.17,21.17,0,0,0,4.44-12c.06-1,1.35,5.05-1,12.76,7.12,1.48,16.8,3.49,25.27,5.17.77-3.29,1.64-6.3,1.64-6.3a37.69,37.69,0,0,0,.2,6.67c1.16.24,2.3.45,3.38.66a132.48,132.48,0,0,1,3.22-14,46.12,46.12,0,0,0,1.61,14.93c5.39,1,9,1.57,8.77,1.27-6.44-10.85.52-15.14-.29-23.8-1-10.38-9.2-13.51-7.58-20.88,1.29-6,4.05-16.8-3.14-20.54a14.92,14.92,0,0,0-15.37-6c-12.89,2.41-11.54,21.89-13,25.52-2.16,5.19-5.09,6.62-8.14,12.43s-1,10.55-1.47,14.84S571.44,301.05,572.79,301.31Z" style="fill:#263238"></path><path d="M627.52,310.54a21.72,21.72,0,0,1-1.65-5.76,11.29,11.29,0,0,1,1.07-5.66,58.77,58.77,0,0,0,2.08-5.78,16.15,16.15,0,0,0,.55-6.32,13.94,13.94,0,0,0-2.27-5.94,36.89,36.89,0,0,0-3.91-4.79,22.86,22.86,0,0,1-3.56-4.75,11.1,11.1,0,0,1-1.17-5.79,10.36,10.36,0,0,0,.5,6.09,20.52,20.52,0,0,0,3.31,5.23,46.58,46.58,0,0,1,3.58,4.79,13.36,13.36,0,0,1,1.92,5.36,15.71,15.71,0,0,1-.46,5.73c-.47,1.91-1.18,3.78-1.81,5.74a21.31,21.31,0,0,0-.76,3,9.21,9.21,0,0,0,.12,3.19A17.45,17.45,0,0,0,627.52,310.54Z" style="fill:#263238"></path><path d="M592.58,246.3a30.76,30.76,0,0,0-3,6.9c-.76,2.39-1.39,4.81-2,7.23l-.93,3.6a18.11,18.11,0,0,1-1.2,3.39,19.72,19.72,0,0,1-4.43,5.63,29.42,29.42,0,0,0-2.56,2.86,18.06,18.06,0,0,0-2,3.36,25.46,25.46,0,0,0-1.22,3.67,16.58,16.58,0,0,0-.49,3.85c0,1.29.13,2.55.21,3.77a18.43,18.43,0,0,1-.09,3.64,7.64,7.64,0,0,1-4.1,5.68,7.76,7.76,0,0,0,4.87-5.54,18.85,18.85,0,0,0,.37-3.81c0-1.27-.08-2.51,0-3.7a19.7,19.7,0,0,1,1.85-6.92,17.11,17.11,0,0,1,1.86-3,26.73,26.73,0,0,1,2.46-2.68c.87-.88,1.77-1.79,2.59-2.8a15.83,15.83,0,0,0,2.08-3.32,20.79,20.79,0,0,0,1.18-3.69c.29-1.23.54-2.45.78-3.68.51-2.44,1-4.88,1.54-7.3A35.64,35.64,0,0,1,592.58,246.3Z" style="fill:#263238"></path><path d="M603.62,290.35c-6.16,8.83-27.26,31.76-41.85,35.09-8,1.83-46.88,7.26-52.21,2.42-6.23-5.67-3.34-27.06,1.62-27.26,15.13-.59,43.13,2.37,50.12.82,3.17-.69,19.94-11.51,37.85-20.16C605.92,278,607.59,284.64,603.62,290.35Z" style="fill:#f7a9a0"></path><path d="M574,293.62l8,21.31s14.08-13.62,21.15-23.07,3.33-14.25-7-10.22S574,293.62,574,293.62Z" style="fill:#37474f"></path><path d="M578.72,292.57c.26.74.64,1.44.95,2.14s.61,1.43.9,2.15l1.71,4.18c1.17,2.81,2.4,5.6,3.41,8.49,0,0-.05.08-.07.05a73.71,73.71,0,0,1-3.83-8.25c-.57-1.41-1.14-2.83-1.68-4.27-.27-.72-.54-1.46-.78-2.2s-.43-1.53-.7-2.24C578.6,292.56,578.7,292.51,578.72,292.57Z" style="fill:#263238"></path><path d="M635.18,348.85c-1.93.62-56.89-15.28-56.89-15.28l6.49-19.08s-3.2-6.13-1.72-12c2-7.88,16.59-20.85,17.73-21.61,4.61-3,8.92-3,12.74-1C629.42,288.31,635.18,348.85,635.18,348.85Z" style="fill:#33EF8A"></path><path d="M612,279.19a13.47,13.47,0,0,1,1.51.68,10.5,10.5,0,0,1,1.39.89,1.62,1.62,0,0,1-1.41.81,1.66,1.66,0,0,1-1.66-1.67A1.55,1.55,0,0,1,612,279.19Zm-11.77,2.08a1.62,1.62,0,0,0,.94.3,1.66,1.66,0,0,0,1.66-1.67,1.5,1.5,0,0,0,0-.22,17.81,17.81,0,0,0-2,1.16C600.7,280.9,600.51,281.05,600.25,281.27Zm23.91,15a1.66,1.66,0,0,0,.77,1.4c-.23-.64-.46-1.26-.69-1.88A1.27,1.27,0,0,0,624.16,296.28Zm-12.31,0a1.66,1.66,0,1,0,1.66-1.66A1.66,1.66,0,0,0,611.85,296.28Zm-12.32,0a1.66,1.66,0,1,0,1.66-1.66A1.67,1.67,0,0,0,599.53,296.28Zm-12.31,0a1.66,1.66,0,1,0,1.66-1.66A1.66,1.66,0,0,0,587.22,296.28ZM618,288a1.66,1.66,0,0,0,3.13.78c-.45-.86-.91-1.67-1.39-2.43h-.08A1.66,1.66,0,0,0,618,288Zm-12.31,0a1.66,1.66,0,1,0,1.66-1.66A1.66,1.66,0,0,0,605.69,288Zm-12.31,0a1.66,1.66,0,1,0,1.66-1.66l-.3,0-1.34,1.37A2.28,2.28,0,0,0,593.38,288Zm30.78,24.64a1.66,1.66,0,1,0,1.66-1.66A1.66,1.66,0,0,0,624.16,312.66Zm-12.31,0a1.66,1.66,0,1,0,1.66-1.66A1.66,1.66,0,0,0,611.85,312.66Zm-12.32,0a1.66,1.66,0,1,0,1.66-1.66A1.66,1.66,0,0,0,599.53,312.66Zm-12.31,0a1.66,1.66,0,1,0,1.66-1.66A1.66,1.66,0,0,0,587.22,312.66ZM618,304.4a1.66,1.66,0,1,0,1.66-1.66A1.66,1.66,0,0,0,618,304.4Zm-12.31,0a1.66,1.66,0,1,0,1.66-1.66A1.66,1.66,0,0,0,605.69,304.4Zm-12.31,0a1.66,1.66,0,1,0,1.66-1.66A1.66,1.66,0,0,0,593.38,304.4Zm-10.7,1.66h0a1.66,1.66,0,0,0,.27-3.3A13.32,13.32,0,0,0,582.68,306.06Zm41.48,23a1.66,1.66,0,1,0,1.66-1.66A1.66,1.66,0,0,0,624.16,329Zm-12.31,0a1.66,1.66,0,1,0,1.66-1.66A1.66,1.66,0,0,0,611.85,329Zm-12.32,0a1.66,1.66,0,1,0,1.66-1.66A1.66,1.66,0,0,0,599.53,329Zm-12.31,0a1.66,1.66,0,1,0,1.66-1.66A1.66,1.66,0,0,0,587.22,329Zm43.1-8.27a1.66,1.66,0,0,0,.94,1.5c-.16-.87-.33-1.73-.51-2.6A1.61,1.61,0,0,0,630.32,320.77Zm-12.32,0a1.66,1.66,0,1,0,1.66-1.66A1.67,1.67,0,0,0,618,320.78Zm-12.31,0a1.66,1.66,0,1,0,1.66-1.66A1.66,1.66,0,0,0,605.69,320.78Zm-12.31,0a1.66,1.66,0,1,0,1.66-1.66A1.66,1.66,0,0,0,593.38,320.78Zm-11.26,1.54a1.5,1.5,0,0,0,.6.12,1.66,1.66,0,0,0,.46-3.26Zm42,23.1a1.63,1.63,0,0,0,.4,1.07l1.85.48h0a1.66,1.66,0,1,0-2.26-1.55Zm6.16-8.27a1.66,1.66,0,1,0,1.66-1.66A1.66,1.66,0,0,0,630.32,337.15Zm-12.32,0a1.66,1.66,0,1,0,1.66-1.66A1.66,1.66,0,0,0,618,337.15Zm-12.31,0a1.66,1.66,0,1,0,1.66-1.66A1.66,1.66,0,0,0,605.69,337.15Zm-12.31,0a1.54,1.54,0,0,0,.21.8l2.26.64a1.64,1.64,0,0,0,.85-1.44,1.66,1.66,0,1,0-3.32,0Z" style="fill:#fff"></path><path d="M593.09,314.05a50,50,0,0,1,7.19,1.24c1.16.31,2.31.68,3.46,1.06.57.2,1.14.37,1.72.54a7.78,7.78,0,0,0,1.85.37,0,0,0,0,1,0,.08,11.86,11.86,0,0,1-1.79,0,14.2,14.2,0,0,1-1.7-.34c-1.19-.3-2.36-.66-3.55-1-2.39-.64-4.78-1.27-7.21-1.73C593,314.22,593,314,593.09,314.05Z" style="fill:#263238"></path><path d="M587.08,316.14a55,55,0,0,1,6-.24c1,0,2,.1,3,.21l1.42.17c.53.07,1,.22,1.56.28.06,0,.06.09,0,.09-.49,0-1,0-1.5,0l-1.5-.05-3-.1c-2-.08-4-.15-6-.17C587,316.3,587,316.15,587.08,316.14Z" style="fill:#263238"></path><path d="M608.83,276.94c4,1.43,3.31,5.86,0,9.67s-7.36,4.4-9.27,3.67-3.24-3.32-.36-8C602.91,276.27,606.43,276.08,608.83,276.94Z" style="fill:#37474f"></path><path d="M610.09,280.94c-.21,1-4.86,7.52-9.41,7.37-1.48-.05-1.56-8.14-1.56-8.14l-.14-.6-2-8.34,11.14-7.3S610.18,280.52,610.09,280.94Z" style="fill:#f7a9a0"></path><path d="M597,271.23l2,8.34a17.25,17.25,0,0,0,9.84-10c-.34-2.88-.64-5.27-.67-5.62a.18.18,0,0,1,0-.05l-1.42.85Z" style="fill:#263238"></path><path d="M586.17,255.86c-3.71,14.59,4.61,18.46,7.75,19.26,2.86.72,12.67,2.82,17.87-11.3s-.4-20.46-6.85-22.46S589.88,241.28,586.17,255.86Z" style="fill:#f7a9a0"></path><path d="M589,254.05a7.27,7.27,0,0,0,1,0,1.62,1.62,0,0,0,1.05-.23.53.53,0,0,0,.12-.64,1.33,1.33,0,0,0-1.24-.54,1.92,1.92,0,0,0-1.32.46A.57.57,0,0,0,589,254.05Z" style="fill:#263238"></path><path d="M598.79,257.12c-.34-.11-.64-.26-1-.4a1.7,1.7,0,0,1-.9-.58.55.55,0,0,1,.12-.65,1.33,1.33,0,0,1,1.34-.07,1.92,1.92,0,0,1,1.08.9C599.72,256.75,599.23,257.25,598.79,257.12Z" style="fill:#263238"></path><path d="M596.29,259s.06.07.05.11c-.23,1-.34,2.18.5,2.7,0,0,0,.06,0,.05C595.75,261.43,595.9,259.86,596.29,259Z" style="fill:#263238"></path><path d="M597.4,258.09c1.64.21,1.1,3.47-.42,3.28S596,257.91,597.4,258.09Z" style="fill:#263238"></path><path d="M598,258.37c.25.23.48.6.82.69s.75-.19,1.06-.47c0,0,.06,0,.05.05-.09.62-.44,1.22-1.13,1.21s-1-.64-1-1.3C597.78,258.43,597.91,258.27,598,258.37Z" style="fill:#263238"></path><path d="M590.49,257.65s-.09,0-.1.08c-.12,1-.44,2.16-1.41,2.35,0,0,0,.06,0,.06C590.12,260.16,590.53,258.64,590.49,257.65Z" style="fill:#263238"></path><path d="M589.75,256.45c-1.61-.38-2.25,2.87-.76,3.22S591.1,256.77,589.75,256.45Z" style="fill:#263238"></path><path d="M589,256.53c-.29.12-.61.39-.92.35s-.55-.45-.71-.84c0,0,0,0-.06,0-.14.62-.06,1.3.51,1.54s1-.24,1.3-.83C589.2,256.67,589.15,256.48,589,256.53Z" style="fill:#263238"></path><path d="M594.94,267.93c-.27.21-.54.52-.91.52a2.66,2.66,0,0,1-1.08-.36,0,0,0,0,0-.05.05,1.38,1.38,0,0,0,1.25.67A1.09,1.09,0,0,0,595,268C595.05,267.92,595,267.89,594.94,267.93Z" style="fill:#263238"></path><path d="M591.22,263.3a22.41,22.41,0,0,0-.54,2.2c0,.07.15.12.39.17,0,0,0,0,0,0a3.44,3.44,0,0,0,3.49-.78c.06-.06,0-.15-.09-.11a5.19,5.19,0,0,1-3.24.42c0-.2.83-2.51.72-2.54a6.25,6.25,0,0,0-1.68.13c.82-3.11,2.12-6.07,2.89-9.19a.1.1,0,0,0-.18-.07,51.82,51.82,0,0,0-3.53,9.76C589.36,263.7,590.91,263.38,591.22,263.3Z" style="fill:#263238"></path><path d="M591.15,265.4a4.22,4.22,0,0,0,1.32,1.67,1.91,1.91,0,0,0,1.09.35c.86,0,1.07-.75,1.08-1.42a4.52,4.52,0,0,0-.12-1.06A5.45,5.45,0,0,1,591.15,265.4Z" style="fill:#263238"></path><path d="M592.47,267.07a1.91,1.91,0,0,0,1.09.35c.86,0,1.07-.75,1.08-1.42A2,2,0,0,0,592.47,267.07Z" style="fill:#ff9cbd"></path><path d="M597.43,243.25a6.8,6.8,0,0,0-.19,4c1.31,3.57,5.51,3.07,6.79,4.55s.48,4,1.56,5.35c1.48,1.92,3.8,1.45,4,2.66s.58,5,2,5.66,10.75-23.71-9-24.81c0,0-2.6-1.36-7,.35-4.84,1.89-7.57,9.3-7.57,9.3s.1-.1.83-.63c1-.74,1.47-1.48,2.22-2,1.17-.75,1.74-.37,3-1.09A13,13,0,0,0,597.43,243.25Z" style="fill:#263238"></path><path d="M597.83,242.19a13.85,13.85,0,0,0-.86,2.95,5.58,5.58,0,0,0,.14,3,4.1,4.1,0,0,0,2.09,2c.91.44,1.93.63,2.89,1.13a3.08,3.08,0,0,1,1.23,1.12,4.1,4.1,0,0,1,.43,1.56,5.56,5.56,0,0,0,.83,2.83,3.44,3.44,0,0,0,2.53,1.36,7.28,7.28,0,0,1,3,.45,7.25,7.25,0,0,0-3-.21,3.74,3.74,0,0,1-2.81-1.37,5.52,5.52,0,0,1-1-3,3.87,3.87,0,0,0-.39-1.39,2.65,2.65,0,0,0-1.06-.92c-.86-.46-1.89-.69-2.85-1.16a5.2,5.2,0,0,1-1.33-.9,3.29,3.29,0,0,1-.92-1.33,5.72,5.72,0,0,1,0-3.15A13.51,13.51,0,0,1,597.83,242.19Z" style="fill:#263238"></path><path d="M597.37,243.05a10.91,10.91,0,0,1-1.21,2.62,5.11,5.11,0,0,1-2.18,2,7.29,7.29,0,0,1-1.41.39,2.39,2.39,0,0,0-1.13.61,7,7,0,0,1-1,1.08,3.15,3.15,0,0,1-1.31.61,3.55,3.55,0,0,0,1.15-.78,7.63,7.63,0,0,0,.84-1.14,2.48,2.48,0,0,1,1.3-.82,6.93,6.93,0,0,0,1.33-.4,5.36,5.36,0,0,0,2.06-1.76A20.25,20.25,0,0,0,597.37,243.05Z" style="fill:#263238"></path><path d="M609.19,264.35s4-4.11,5.92-2.6-1.63,7.82-4.25,8.33a2.54,2.54,0,0,1-3.14-1.9Z" style="fill:#f7a9a0"></path><path d="M614.05,263.53s0,.06,0,.07a6.42,6.42,0,0,0-3.93,3.43,1.4,1.4,0,0,1,2.13,0,.06.06,0,0,1-.06.09,1.56,1.56,0,0,0-1.79.26,8.23,8.23,0,0,0-1,1.24c-.1.14-.37,0-.28-.16l0,0C609.42,266.17,611.64,263.36,614.05,263.53Z" style="fill:#263238"></path><path d="M621.39,293.31c4.42,25.07.15,43.84-4.11,46.17-11.46,6.26-39-6.44-46.75-9-3.14-1,11.17-25,14.37-23.54,7.55,3.48,18.12,9.4,18.55,9.36.85-.09,1.84-6.48,6.22-25.13C613.22,276.12,619.59,283.06,621.39,293.31Z" style="fill:#f7a9a0"></path><path d="M545.51,295.1c-.79,3.15,7.14,4.43,7.14,4.43a6,6,0,0,0-3.14,2.59c-1.16,2.18,1.76,4.95,1.76,4.95a7.35,7.35,0,0,0-2.88,3.26c-.9,2.2,1.64,5.4,1.64,5.4a6.49,6.49,0,0,0-.72,4.47c1,4,7.17,5.63,10.81,7.37,3.9,1.87,10.36,2.56,13.29,3.88L586.1,308.2s-12.26-13-19.26-15C563,292.09,546.71,290.29,545.51,295.1Z" style="fill:#f7a9a0"></path><path d="M552.73,299.45A54.37,54.37,0,0,1,565.88,301a.08.08,0,0,1,0,.15c-4.25-.93-8.85-.74-13.13-1.5A.11.11,0,0,1,552.73,299.45Z" style="fill:#263238"></path><path d="M551.46,306.77a12,12,0,0,1,3,.55c1,.27,2.06.56,3.08.86,2,.6,4.09,1.25,6.1,2,.09,0,.07.17,0,.14-2-.59-4.09-1.16-6.16-1.67l-3.11-.74a13.71,13.71,0,0,1-2.9-.81A.15.15,0,0,1,551.46,306.77Z" style="fill:#263238"></path><path d="M550.12,315.76a7.92,7.92,0,0,1,2.64.64l2.79.86c1.86.57,3.72,1.13,5.61,1.63.09,0,.06.18,0,.15-1.91-.5-3.83-1-5.74-1.49l-2.81-.77a7.74,7.74,0,0,1-2.48-.93A.05.05,0,0,1,550.12,315.76Z" style="fill:#263238"></path><path d="M603.38,313.73l21.39,7.86s-1.08-19.56-3.6-31.09-8.59-11.84-12.32-1.38S603.38,313.73,603.38,313.73Z" style="fill:#37474f"></path><path d="M605.69,309.48c.72.28,1.5.45,2.24.68s1.48.48,2.21.73l4.28,1.43c2.89,1,5.8,1.86,8.65,3,0,0,0,.1,0,.09a72.21,72.21,0,0,1-8.74-2.5c-1.45-.49-2.89-1-4.33-1.53-.73-.26-1.46-.54-2.18-.85s-1.43-.67-2.15-.93C605.6,309.56,605.63,309.45,605.69,309.48Z" style="fill:#263238"></path><rect x="527.69" y="329.29" width="58.31" height="2.62" style="fill:#c7c7c7"></rect><polygon points="573.52 329.29 575.52 331.91 527.69 331.91 527.69 329.29 573.52 329.29" style="fill:#a6a6a6"></polygon><polygon points="571.02 331.9 514.2 331.9 509.47 293.31 566.29 293.31 571.02 331.9" style="fill:#c7c7c7"></polygon><path d="M543.71,312.61a3.38,3.38,0,0,1-3.4,3.45,3.52,3.52,0,0,1-3.52-3.45,3.38,3.38,0,0,1,3.4-3.46A3.54,3.54,0,0,1,543.71,312.61Z" style="fill:#fff"></path><path d="M509.93,297c-2.14,3.31-7.43,7.17-8.16,10a3.37,3.37,0,0,0,1.39,3.76s-3.07,1.05-3.3,3.74c-.13,1.38,2,2.78,2,2.78a4,4,0,0,0-2.48,3.35c-.05,1.91,2.06,3,2.06,3s-1.89,2-1.32,3.95c1.17,4,17.43,6.14,20.74.48,1.54-2.64-2.46-2.95-2.46-2.95s5.86-.95,6.39-4.29-4.7-3.43-4.7-3.43,5.68-1,5.87-4.49-5-2.85-5-2.85,3.94-2,3.48-4.71c-.77-4.51-10,.29-13.51-1Z" style="fill:#f7a9a0"></path><path d="M501.72,323.94a0,0,0,0,0,0,.09,28.45,28.45,0,0,0,16.89,1.21c.18-.05.18-.35,0-.34A58,58,0,0,1,501.72,323.94Z" style="fill:#263238"></path><path d="M501.75,317.36c-.06,0-.09.09,0,.11a26.67,26.67,0,0,0,18.51.18c.2-.08.31-.36.06-.28C516.17,318.64,506.93,318.5,501.75,317.36Z" style="fill:#263238"></path><path d="M521.29,309.83c-5.88,2-11.82,2-17.92,1.08-.08,0-.09.1,0,.12,2.86,1.27,6.8,1.45,9.89,1.33a16.34,16.34,0,0,0,8.12-2.33C521.46,310,521.41,309.78,521.29,309.83Z" style="fill:#263238"></path><path d="M396.77,407.07c.8,2.16,39.86,50.71,42.52,51.62,1,.35,8.41-4.92,17.18-11.55,1.89-1.43,3.84-2.92,5.81-4.45C475.06,432.81,488.4,422,488.4,422l-26-32.55L437,411l-5.58,4.73s-23.28-11.9-26.3-12.59S396,404.92,396.77,407.07Z" style="fill:#f7a9a0"></path><path d="M469.1,437.38l-6.83,5.31c-2,1.53-3.91,3-5.8,4.45-8.77,6.63-16.17,11.9-17.18,11.55-2.66-.91-41.72-49.46-42.52-51.62s5.29-4.57,8.31-3.9,26.29,12.59,26.29,12.59L437,411l5.67-4.81Z" style="fill:#ebebeb"></path><path d="M396.31,406.85c.82,2.19,40.77,51.39,43.48,52.31,1.25.42,12.07-7.64,23.3-16.39l-25.9-32.08-5.65,4.83s-23.73-12-26.8-12.68S395.49,404.67,396.31,406.85Z" style="fill:#33EF8A"></path><path d="M398.85,406c6.9,8.08,34,41.34,40.17,49.85.05.07,0,.11,0,0-7-7.86-33.81-41.33-40.26-49.78C398.58,405.89,398.7,405.79,398.85,406Z" style="fill:#263238"></path><path d="M432.43,412.87c3.24,2.76,6,7.13,5.67,11.49,0,.17-.26.15-.31,0A59,59,0,0,0,432,413.22.27.27,0,0,1,432.43,412.87Z" style="fill:#263238"></path><path d="M429.11,411.68c3.24,2.75,6,7.13,5.67,11.48,0,.17-.25.15-.3,0A58.42,58.42,0,0,0,428.71,412,.27.27,0,0,1,429.11,411.68Z" style="fill:#263238"></path><path d="M425.8,410.48c3.24,2.75,6,7.13,5.67,11.49,0,.17-.25.15-.31,0a58.87,58.87,0,0,0-5.76-11.15A.27.27,0,0,1,425.8,410.48Z" style="fill:#263238"></path><path d="M422.48,409.28c3.25,2.76,6,7.13,5.67,11.49,0,.17-.25.15-.3,0a58.42,58.42,0,0,0-5.77-11.16A.27.27,0,0,1,422.48,409.28Z" style="fill:#263238"></path><path d="M431.62,406c.08,3.75,1.78,7.33,3,10.81a.52.52,0,0,0,.82.18.11.11,0,0,0,.18,0,22.2,22.2,0,0,0,3.38-11c0-2.28-1.1-5.3-3.89-5.15S431.58,403.81,431.62,406Zm1.94-2.95c3.1-3.46,4.34,1.88,4.24,3.56a23.48,23.48,0,0,1-.46,3.23c-.44,2.22-1.18,4.34-1.83,6.49-.48-1.75-1.1-3.44-1.64-5.17C433.23,409.09,431.86,405,433.56,403Z" style="fill:#263238"></path><path d="M449.33,423.78c1.38-2.42-.8-4.79-2.86-5.78a22.27,22.27,0,0,0-11.38-1.93c-.09,0-.11.08-.09.15a.51.51,0,0,0-.21.81c2.59,2.62,5,5.75,8.34,7.5C445.06,425.55,448,426.08,449.33,423.78Zm-9.81-3.57c-1.3-1.26-2.53-2.58-3.88-3.79,2.22.39,4.44.67,6.62,1.28a22.4,22.4,0,0,1,3.09,1c1.55.67,5.77,4.17,1.28,5.38C444.16,424.78,441.08,421.7,439.52,420.21Z" style="fill:#263238"></path><path d="M438.32,406.12l27.09,36.56,91.43-63.45,8.82-6.12s2.49,1.68,6.25,3.76c5.22,2.89,12.87,6.54,19.64,7.54,11.35,1.68,30.3,1.49,39.87-11.3,8.05-10.77,3.68-24.82,3.68-24.82l-12.47-5.36S593.14,318.36,574,317.62c-8.12-.32-19.93,5.83-30.87,12.25S438.32,406.12,438.32,406.12Z" style="fill:#37474f"></path><path d="M565.66,373.11s2.49,1.68,6.25,3.76c6.64-7.95,20.71-22.4,21.14-22.91Z" style="fill:#263238"></path><path d="M611.83,334.71c1.76,1.22,3.47,2.52,5.2,3.78s3.48,2.4,5.11,3.75,3.22,2.84,4.78,4.31c.75.72,1.5,1.44,2.22,2.18a19.2,19.2,0,0,1,2.12,2.3c.06.08,0,.17-.12.12a24.24,24.24,0,0,1-2.37-1.92l-2.46-2.1c-1.59-1.34-3.2-2.65-4.78-4s-3-2.81-4.59-4.17-3.42-2.81-5.15-4.18C611.76,334.74,611.79,334.68,611.83,334.71Z" style="fill:#263238"></path><path d="M444.68,404.81c1.76,1.9,3.38,3.94,5,5.94s3.29,4,4.91,6.06c3.25,4.06,6.53,8.1,9.72,12.2,1.75,2.26,3.49,4.53,5.12,6.88.07.1-.1.22-.18.13-3.5-3.85-6.69-7.95-9.93-12s-6.49-8.14-9.68-12.25c-1.74-2.25-3.54-4.49-5.14-6.84C444.45,404.83,444.6,404.73,444.68,404.81Z" style="fill:#263238"></path><path d="M519.71,405.18c4.55-3.58,9.27-7,14-10.33s9.38-6.7,14.14-10c1.37-.93,2.75-1.84,4.13-2.76s2.8-1.76,4.15-2.7c.08-.06.15.07.07.13-1.24.88-2.4,1.88-3.62,2.8s-2.31,1.77-3.48,2.63c-2.29,1.69-4.6,3.35-6.9,5q-7,5.07-14.13,10c-2.7,1.85-5.38,3.71-8.14,5.47C519.75,405.56,519.56,405.3,519.71,405.18Z" style="fill:#263238"></path><path d="M490.47,367.46c4.21-3.48,8.71-6.62,13.12-9.84s8.89-6.54,13.36-9.78l13.32-9.62c4.3-3.11,8.59-6.27,13.13-9q3.74-2.26,7.66-4.16A49.47,49.47,0,0,1,559,321.8c.08,0,.12.09,0,.13-2.24,1.25-4.59,2.31-6.86,3.51s-4.45,2.45-6.62,3.77c-4.51,2.73-8.77,5.84-13,8.92-8.89,6.39-17.76,12.81-26.71,19.11-5,3.53-9.91,7.25-15.12,10.49C490.51,367.84,490.32,367.59,490.47,367.46Z" style="fill:#263238"></path></g><g id="freepik--Plant--inject-62"><path d="M86.61,327C80.22,313.82,69,307.08,56.44,310.8s-14.55,21.3-5.14,25.74S70.11,328,75.08,325.36,86.61,327,86.61,327Z" style="fill:#33EF8A"></path><path d="M92.8,361.91c0-1.58-.1-3.17-.15-4.75-.12-3.16-.22-6.32-.34-9.48-.21-5.78-.84-11.46-3.23-16.79a26,26,0,0,0-10.14-11.67,20.85,20.85,0,0,0-5.32-2.3,12.44,12.44,0,0,0-6.22-3.42,25.35,25.35,0,0,0-8.86-.22c-.11,0-.11.18,0,.17a21.21,21.21,0,0,1,8.39.59,17.73,17.73,0,0,1,3.37,1.32,15.82,15.82,0,0,1,2,1.24,18,18,0,0,0-7.7.07,16.37,16.37,0,0,0-2.67.88,8.33,8.33,0,0,0-2.1-.18,12.57,12.57,0,0,0-2.73.39A20.67,20.67,0,0,0,51.87,320c-.09.05,0,.19.09.14A19.12,19.12,0,0,1,57,318.26a17.52,17.52,0,0,1,2.6-.38,14,14,0,0,1,1.45,0A16.68,16.68,0,0,0,52.92,326c0,.1.1.18.15.08a15.33,15.33,0,0,1,10.38-8.32c.28-.07.56-.11.84-.16a10.93,10.93,0,0,0-.13,1.27c-.09.63-.19,1.27-.32,1.9a34.13,34.13,0,0,1-1,3.85,29.37,29.37,0,0,1-1.53,3.72,17.41,17.41,0,0,1-2.13,3.6.09.09,0,1,0,.14.1c.75-1.19,1.64-2.28,2.33-3.51a26,26,0,0,0,1.7-3.67,24.31,24.31,0,0,0,1.13-3.94c.14-.7.25-1.42.33-2.13a4.74,4.74,0,0,0,.08-1.3,17.15,17.15,0,0,1,4.47-.1c-.56,3.14-1.16,6.4-2.91,9.12a.08.08,0,1,0,.14.08,35.56,35.56,0,0,0,2.17-4.48,17,17,0,0,0,1.08-4.67,20.71,20.71,0,0,1,7.4,2.49,24.37,24.37,0,0,1,9.84,10.77,40.39,40.39,0,0,1,3.65,15.44c.42,6.71.51,13.47,1.18,20.16.05.44.74.58.82.09A23.23,23.23,0,0,0,92.8,361.91Z" style="fill:#263238"></path><path d="M78,318.16a7.4,7.4,0,0,0-1.45-1.34c-.52-.43-1.06-.85-1.62-1.23a12,12,0,0,0-3.63-1.68.08.08,0,1,0,0,.16,9.59,9.59,0,0,1,3.58,1.76c.53.39,1,.81,1.55,1.25a9,9,0,0,0,1.46,1.24C78,318.37,78.1,318.26,78,318.16Z" style="fill:#263238"></path><path d="M57.64,322.92a37.93,37.93,0,0,0-2.93,3.88,24,24,0,0,0-2.18,4.32s.06.07.08,0A51,51,0,0,1,57.76,323C57.83,323,57.71,322.84,57.64,322.92Z" style="fill:#263238"></path><path d="M71.39,321.62a9.5,9.5,0,0,1-.73,2.38,15.65,15.65,0,0,1-1.21,2.1s0,.09.07.06a8.55,8.55,0,0,0,2-4.5C71.56,321.56,71.4,321.52,71.39,321.62Z" style="fill:#263238"></path><path d="M91.9,327.28s9-11.37,26.51-7.34c16.6,3.83,24.25,34.26,7.48,37.9s-13.81-24.52-19.92-29.3C101.49,325,95,325.79,91.9,327.28Z" style="fill:#33EF8A"></path><path d="M131.9,336.56a33,33,0,0,0-3.6-2.76,15.86,15.86,0,0,0-3.84-1.92,23.56,23.56,0,0,0-2.27-2.92,22.65,22.65,0,0,0-5.28-4.21l.52,0a25.78,25.78,0,0,1,2.78,0,15.43,15.43,0,0,1,5.38,1.34c.1,0,.17-.11.08-.15a24.88,24.88,0,0,0-5.38-1.62,14.74,14.74,0,0,0-2.73-.24q-.74,0-1.47.09l-.28,0a23.32,23.32,0,0,0-5-1.85l.48-.13a25.43,25.43,0,0,1,2.59-.43,20.81,20.81,0,0,1,5.23.08c.1,0,.13-.15,0-.16a32.17,32.17,0,0,0-5.28-.21,22,22,0,0,0-4.4.56,23.8,23.8,0,0,0-3.18-.36c-6.09-.26-12.72,2-16.47,7s-4.48,11.69-5.15,17.74A134.46,134.46,0,0,0,84,371.82c0,.5.74.41.75-.06.23-7.18.48-14.36,1.17-21.51.32-3.31.67-6.63,1.22-9.91a29.21,29.21,0,0,1,2.41-8.17,14.93,14.93,0,0,1,5.89-6.33,19.86,19.86,0,0,1,8.35-2.57,22.65,22.65,0,0,1,7.83.73,5,5,0,0,0,0,1.55,8.29,8.29,0,0,0,.38,1.91,10.51,10.51,0,0,0,.73,1.69c.32.6.73,1.13,1.09,1.71.06.09.2,0,.14-.1a7.88,7.88,0,0,1-1.36-3.44,13.3,13.3,0,0,1-.21-1.78c0-.45,0-.9,0-1.35a23.1,23.1,0,0,1,7.62,4c.43.34.84.7,1.24,1.06a8.44,8.44,0,0,0-1.48,1.82,17.56,17.56,0,0,0-1.56,2.77,23.56,23.56,0,0,0-1.61,6.07c0,.11.15.14.16,0a17.87,17.87,0,0,1,2-5.75,22.93,22.93,0,0,1,1.55-2.56c.29-.42.6-.84.91-1.24.17-.22.36-.44.52-.67a24.15,24.15,0,0,1,5,7l0,0a11.8,11.8,0,0,0-2,2.94,28.42,28.42,0,0,0-1.64,3.49,60.47,60.47,0,0,0-2.08,7.12c0,.11.14.14.16,0a29.86,29.86,0,0,1,2.48-7c.52-1.09,1.07-2.17,1.65-3.23a27.24,27.24,0,0,0,1.64-3.06,22.33,22.33,0,0,1,2,8.09c0,.11.18.09.17,0A28.23,28.23,0,0,0,125,332.69c1.07.45,2.14.89,3.17,1.44a18.39,18.39,0,0,1,3.63,2.55C131.87,336.76,132,336.63,131.9,336.56Z" style="fill:#263238"></path><path d="M119.09,337.2c-.52,1.72-1.18,3.4-1.65,5.14a19.86,19.86,0,0,0-.78,5.13s.08,0,.09,0a50,50,0,0,1,2.5-10.23A.08.08,0,1,0,119.09,337.2Z" style="fill:#263238"></path><path d="M130.15,332.92a9.72,9.72,0,0,0-2.31-1.65,16.69,16.69,0,0,0-2.68-.94c-.1,0-.13.14,0,.16a10.55,10.55,0,0,1,2.58,1.06,18.62,18.62,0,0,1,2.37,1.46A.06.06,0,0,0,130.15,332.92Z" style="fill:#263238"></path><path d="M100.5,312.09s1.67-20.42,16.86-27c12.68-5.53,19.94,8.72,11,17.44C121.08,309.54,109.45,306.36,100.5,312.09Z" style="fill:#33EF8A"></path><path d="M125.52,289a65,65,0,0,0-6.75,3.2,50.64,50.64,0,0,0-5.24,3.48c.25-.52.47-1.06.72-1.56.4-.79.82-1.56,1.29-2.31a21.44,21.44,0,0,1,3.35-4.23c.08-.08,0-.2-.12-.12a33.42,33.42,0,0,0-3.52,4.1,24.9,24.9,0,0,0-1.45,2.31,9.62,9.62,0,0,0-1,2.35s-.11.08-.17.13a50.09,50.09,0,0,0-7.25,7.09c0-.2.09-.4.14-.58.28-1,.59-2,.92-3a25.55,25.55,0,0,1,2.74-6c.06-.09-.09-.17-.14-.08a47.4,47.4,0,0,0-3.18,5.81,21.58,21.58,0,0,0-1,3,12.55,12.55,0,0,0-.49,2.05c-.67.84-1.32,1.68-1.93,2.56-6.52,9.28-9.79,20.5-10.58,31.73a99.33,99.33,0,0,0-.17,10.06,64.36,64.36,0,0,0,.89,10.1.19.19,0,0,0,.37-.06c-.07-2.95-.38-5.89-.44-8.84s0-5.92.29-8.87A82.33,82.33,0,0,1,96,324a62.24,62.24,0,0,1,7.72-16.34c.64-.12,1.28-.3,1.9-.46l2.28-.6a21.87,21.87,0,0,0,4.23-1.55.08.08,0,0,0-.09-.14,13.74,13.74,0,0,1-4.29,1.48c-1.19.24-2.42.39-3.61.66,1.1-1.6,2.27-3.15,3.53-4.64a26.46,26.46,0,0,0,8.64-.64,36.45,36.45,0,0,0,4.42-1.38c1.52-.59,3-1.34,4.46-2,.11,0,0-.21-.07-.15a25.17,25.17,0,0,1-8.76,2.87,54.73,54.73,0,0,1-8.19.68c1.08-1.24,2.19-2.45,3.38-3.58,4-3.8,8.73-7.29,14-9.11C125.67,289.13,125.62,289,125.52,289Z" style="fill:#263238"></path><path d="M113.17,289.07a21.79,21.79,0,0,0-1.86,2.72A14,14,0,0,0,110,295s0,.05.06,0c.5-1,.93-2,1.44-3a15.32,15.32,0,0,1,1.82-2.76C113.36,289.1,113.23,289,113.17,289.07Z" style="fill:#263238"></path><path d="M127.29,295.87a15.43,15.43,0,0,1-3.12,1.29A28.5,28.5,0,0,1,121,298s0,.09,0,.09a16.16,16.16,0,0,0,3.28-.72,28.2,28.2,0,0,0,3.07-1.38A.08.08,0,1,0,127.29,295.87Z" style="fill:#263238"></path><path d="M88.7,308.42c-.1.88-2.3-7.42-15.14-14.79C61.9,286.94,48,269.54,59.42,258.55,68.65,249.68,93,269,88.7,308.42Z" style="fill:#33EF8A"></path><path d="M97.54,356a230.12,230.12,0,0,0-2-25.82,115.81,115.81,0,0,0-5.43-23.1c-.95-2.7-2-5.36-3.23-8a17.22,17.22,0,0,0,0-3c-.06-1.31-.18-2.61-.3-3.92s-.25-2.6-.41-3.9-.43-2.6-.48-3.9c0-.12-.19-.09-.17,0a26,26,0,0,1,.46,4.13q.15,1.89.21,3.78c0,1.27,0,2.53,0,3.8,0,.45,0,.94,0,1.42-1.21-2.55-2.51-5.06-3.91-7.51.87-5.32-.26-10.88-1.34-16.09a.08.08,0,0,0-.16.05,45.62,45.62,0,0,1,.84,8.25c0,2.19,0,4.37-.06,6.56-.31-.53-.61-1.05-.93-1.57q-2.49-4.08-5.33-8a12.68,12.68,0,0,0-.13-3.79,28.26,28.26,0,0,0-.93-4.15c-.41-1.36-.88-2.69-1.42-4s-1.3-2.63-1.83-4c-.05-.11-.22,0-.15.07a19.8,19.8,0,0,1,1.6,4,37.19,37.19,0,0,1,1.05,4c.28,1.36.5,2.71.69,4.08.12.9.2,1.83.36,2.75a97.55,97.55,0,0,0-9-10.46c-.08-.08-.19,0-.12.12A117.56,117.56,0,0,1,78.4,285.6l.41.72c-.71-.44-1.52-.8-2.18-1.17-1.25-.69-2.5-1.38-3.75-2l-3.64-2c-.62-.35-1.23-.71-1.87-1a15.38,15.38,0,0,1-2.17-1.21c-.1-.07-.2.08-.1.14,1.24.67,2.33,1.68,3.52,2.45s2.42,1.5,3.67,2.19c2.28,1.28,4.76,2.19,7,3.51,1.56,2.73,3,5.53,4.32,8.38q-2.06-1.32-4.17-2.5c-.91-.51-1.83-1-2.75-1.5A13.11,13.11,0,0,1,74.11,290c-.08-.07-.19,0-.11.12a24.08,24.08,0,0,0,4.93,3.44c1.65,1,3.32,1.89,5,2.73q2.07,4.51,3.72,9.19c5.4,15.3,7.39,31.54,8.34,47.68.28,4.81.43,9.61.49,14.43s-.2,9.62-.19,14.42c0,.15.24.18.26,0,.57-4.26.67-8.6.86-12.9S97.63,360.36,97.54,356Z" style="fill:#263238"></path><path d="M74.21,286.72a62,62,0,0,1-6.82-3.53,69.5,69.5,0,0,1-6.48-4.12s-.08,0,0,.06a53.46,53.46,0,0,0,6.23,4.35,60.68,60.68,0,0,0,7,3.38C74.23,286.9,74.31,286.76,74.21,286.72Z" style="fill:#263238"></path><path d="M77.93,269.42c-.19-.75-.43-1.48-.68-2.21,0,0,0,0,0-.08-.16-.42-.33-.83-.5-1.24a1.16,1.16,0,0,0-.06-.15l-.09-.23s0,0,0,0l.12.42a1.68,1.68,0,0,0,.07.24,61.59,61.59,0,0,1,1.9,8.72c0,.09.16.09.15,0A29,29,0,0,0,77.93,269.42Z" style="fill:#263238"></path><polygon points="111.1 359.09 110.19 369.95 107.38 403.07 77.34 403.07 74.53 369.95 73.62 359.09 111.1 359.09" style="fill:#37474f"></polygon><polygon points="111.1 359.09 110.19 369.95 74.53 369.95 73.62 359.09 111.1 359.09" style="fill:#263238"></polygon><rect x="70.67" y="354.73" width="43.38" height="10.42" style="fill:#37474f"></rect></g></svg>