<svg xmlns="http://www.w3.org/2000/svg" viewBox="0 0 500 500"><g id="freepik--background-complete--inject-47"><rect y="382.4" width="500" height="0.25" style="fill:#ebebeb"></rect><rect x="416.78" y="398.49" width="33.12" height="0.25" style="fill:#ebebeb"></rect><rect x="322.53" y="401.21" width="8.69" height="0.25" style="fill:#ebebeb"></rect><rect x="396.59" y="389.21" width="19.19" height="0.25" style="fill:#ebebeb"></rect><rect x="52.46" y="390.89" width="43.19" height="0.25" style="fill:#ebebeb"></rect><rect x="104.56" y="390.89" width="6.33" height="0.25" style="fill:#ebebeb"></rect><rect x="131.47" y="395.11" width="93.68" height="0.25" style="fill:#ebebeb"></rect><path d="M237,337.8H43.91a5.71,5.71,0,0,1-5.7-5.71V60.66A5.71,5.71,0,0,1,43.91,55H237a5.71,5.71,0,0,1,5.71,5.71V332.09A5.71,5.71,0,0,1,237,337.8ZM43.91,55.2a5.46,5.46,0,0,0-5.45,5.46V332.09a5.46,5.46,0,0,0,5.45,5.46H237a5.47,5.47,0,0,0,5.46-5.46V60.66A5.47,5.47,0,0,0,237,55.2Z" style="fill:#ebebeb"></path><path d="M453.31,337.8H260.21a5.72,5.72,0,0,1-5.71-5.71V60.66A5.72,5.72,0,0,1,260.21,55h193.1A5.71,5.71,0,0,1,459,60.66V332.09A5.71,5.71,0,0,1,453.31,337.8ZM260.21,55.2a5.47,5.47,0,0,0-5.46,5.46V332.09a5.47,5.47,0,0,0,5.46,5.46h193.1a5.47,5.47,0,0,0,5.46-5.46V60.66a5.47,5.47,0,0,0-5.46-5.46Z" style="fill:#ebebeb"></path><polygon points="46 337.78 453 337.78 453 283.12 429 283.12 428.9 256.12 414 256.12 414 222.12 393 222.12 393 202.3 366 181.12 319.83 181.12 277 222.12 287 222.12 287 267.12 265 267.12 265 252.12 217 252.12 217 169.12 196 169.12 196 276.12 178 276.12 178 222.12 106 222.12 106 249.12 65 249.12 65 294.12 37 308.2 46 308.2 46 337.78" style="fill:#ebebeb"></polygon><rect x="115.91" y="230.88" width="7.91" height="15.32" style="fill:#f5f5f5"></rect><rect x="125.8" y="230.88" width="7.91" height="15.32" style="fill:#f5f5f5"></rect><rect x="135.68" y="230.88" width="7.91" height="15.32" style="fill:#f5f5f5"></rect><rect x="145.56" y="230.88" width="7.91" height="15.32" style="fill:#f5f5f5"></rect><rect x="155.44" y="230.88" width="7.91" height="15.32" style="fill:#f5f5f5"></rect><rect x="165.33" y="230.88" width="7.91" height="15.32" style="fill:#f5f5f5"></rect><rect x="387.6" y="265.06" width="12.9" height="12.9" style="fill:#f5f5f5"></rect><rect x="387.6" y="280.16" width="12.9" height="12.9" style="fill:#f5f5f5"></rect><rect x="402.64" y="265.06" width="12.9" height="12.9" style="fill:#f5f5f5"></rect><rect x="402.64" y="280.16" width="12.9" height="12.9" style="fill:#f5f5f5"></rect><rect x="52.57" y="310.33" width="11.91" height="11.91" style="fill:#f5f5f5"></rect><rect x="67.99" y="310.33" width="11.91" height="11.91" style="fill:#f5f5f5"></rect><rect x="83.41" y="310.33" width="11.91" height="11.91" style="fill:#f5f5f5"></rect><rect x="98.82" y="310.33" width="11.91" height="11.91" style="fill:#f5f5f5"></rect><rect x="114.24" y="310.33" width="11.91" height="11.91" style="fill:#f5f5f5"></rect><rect x="129.66" y="310.33" width="11.91" height="11.91" style="fill:#f5f5f5"></rect><rect x="71.42" y="257.09" width="11.91" height="11.91" style="fill:#f5f5f5"></rect><rect x="86.83" y="257.09" width="11.91" height="11.91" style="fill:#f5f5f5"></rect><rect x="102.25" y="257.09" width="11.91" height="11.91" style="fill:#f5f5f5"></rect><rect x="117.67" y="257.09" width="11.91" height="11.91" style="fill:#f5f5f5"></rect><rect x="133.08" y="257.09" width="11.91" height="11.91" style="fill:#f5f5f5"></rect><rect x="148.5" y="257.09" width="11.91" height="11.91" style="fill:#f5f5f5"></rect><rect x="356.76" y="304.38" width="11.91" height="11.91" style="fill:#f5f5f5"></rect><rect x="372.18" y="304.38" width="11.91" height="11.91" style="fill:#f5f5f5"></rect><rect x="387.6" y="304.38" width="11.91" height="11.91" style="fill:#f5f5f5"></rect><rect x="403.01" y="304.38" width="11.91" height="11.91" style="fill:#f5f5f5"></rect><rect x="418.43" y="304.38" width="11.91" height="11.91" style="fill:#f5f5f5"></rect><rect x="433.85" y="304.38" width="11.91" height="11.91" style="fill:#f5f5f5"></rect><rect x="182.86" y="298.42" width="11.91" height="11.91" style="fill:#f5f5f5"></rect><rect x="198.28" y="298.42" width="11.91" height="11.91" style="fill:#f5f5f5"></rect><rect x="213.7" y="298.42" width="11.91" height="11.91" style="fill:#f5f5f5"></rect><rect x="229.11" y="298.42" width="11.91" height="11.91" style="fill:#f5f5f5"></rect><rect x="244.53" y="298.42" width="11.91" height="11.91" style="fill:#f5f5f5"></rect><rect x="259.95" y="298.42" width="11.91" height="11.91" style="fill:#f5f5f5"></rect><rect x="315.77" y="230.88" width="11.91" height="11.91" style="fill:#f5f5f5"></rect><rect x="331.19" y="230.88" width="11.91" height="11.91" style="fill:#f5f5f5"></rect><rect x="346.61" y="230.88" width="11.91" height="11.91" style="fill:#f5f5f5"></rect><rect x="362.03" y="230.88" width="11.91" height="11.91" style="fill:#f5f5f5"></rect><rect x="377.44" y="230.88" width="11.91" height="11.91" style="fill:#f5f5f5"></rect><rect x="392.86" y="230.88" width="11.91" height="11.91" style="fill:#f5f5f5"></rect><rect x="220.33" y="263.05" width="12.92" height="12.92" style="fill:#f5f5f5"></rect><rect x="236.26" y="263.05" width="12.92" height="12.92" style="fill:#f5f5f5"></rect><rect x="220.33" y="279.06" width="12.92" height="12.92" style="fill:#f5f5f5"></rect><rect x="236.26" y="279.06" width="12.92" height="12.92" style="fill:#f5f5f5"></rect><polygon points="87.93 155.41 114.88 155.41 114.88 71.98 87.93 71.98 93.29 113.69 87.93 155.41" style="fill:#ebebeb"></polygon><polygon points="87.93 155.41 114.88 155.41 114.88 71.98 87.93 71.98 93.29 113.69 87.93 155.41" style="fill:#ebebeb"></polygon><path d="M391.68,138.13s-62.47,15.69-145.14,15.69S101.4,138.13,101.4,138.13V54.83s80.84,15.68,145.14,15.68S391.68,54.83,391.68,54.83Z" style="fill:#ebebeb"></path><polygon points="101.4 138.13 114.88 155.41 114.88 71.98 101.4 54.83 101.4 138.13" style="fill:#ebebeb"></polygon><polygon points="405.15 155.41 378.21 155.41 378.21 71.98 405.15 71.98 399.79 113.69 405.15 155.41" style="fill:#ebebeb"></polygon><polygon points="405.15 155.41 378.21 155.41 378.21 71.98 405.15 71.98 399.79 113.69 405.15 155.41" style="fill:#ebebeb"></polygon><polygon points="391.68 138.13 378.21 155.41 378.21 71.98 391.68 54.83 391.68 138.13" style="fill:#ebebeb"></polygon><path d="M391.68,138.13s-62.47,15.69-145.14,15.69S101.4,138.13,101.4,138.13V54.83s80.84,15.68,145.14,15.68S391.68,54.83,391.68,54.83Z" style="fill:#ebebeb"></path><circle cx="227.24" cy="108.34" r="18.73" transform="translate(69.59 304.61) rotate(-76.72)" style="fill:#fff"></circle><g style="opacity:0.4"><path d="M232.27,96.64V120h-7.89V102.59h-4v-6Z" style="fill:#ebebeb"></path></g><rect x="142.53" y="81.01" width="51.35" height="54.65" style="fill:#fff"></rect><path d="M146.75,132.56l3.3-18.71c.91-3.21,10-3.77,15.4-4v-4c-3.2-.77-6.87-2.2-7-4.77V88.54c.1-3.21,2-4.12,8.81-4.4s7.89,2.46,8.07,3.67v12.1c.18,4.59-2.52,4.5-5.87,5.51v4.4c6.33.59,13.66-.37,14.67,3.67l5.5,19.07Z" style="fill:#36E972"></path><path d="M146.75,132.56l3.3-18.71c.91-3.21,10-3.77,15.4-4v-4c-3.2-.77-6.87-2.2-7-4.77V88.54c.1-3.21,2-4.12,8.81-4.4s7.89,2.46,8.07,3.67v12.1c.18,4.59-2.52,4.5-5.87,5.51v4.4c6.33.59,13.66-.37,14.67,3.67l5.5,19.07Z" style="fill:#ebebeb"></path><polygon points="380.37 76.72 265.62 88.9 265.62 81.87 380.37 69.69 380.37 76.72" style="fill:#fff"></polygon><polygon points="380.37 91.06 265.62 103.24 265.62 96.21 380.37 84.03 380.37 91.06" style="fill:#fff"></polygon><polygon points="380.37 105.12 265.62 117.3 265.62 110.27 380.37 98.09 380.37 105.12" style="fill:#fff"></polygon><polygon points="380.37 117.47 265.62 129.64 265.62 122.61 380.37 110.44 380.37 117.47" style="fill:#fff"></polygon></g><g id="freepik--Shadow--inject-47"><ellipse id="freepik--path--inject-47" cx="250" cy="416.24" rx="193.89" ry="11.32" style="fill:#f5f5f5"></ellipse></g><g id="freepik--Character--inject-47"><path d="M214.92,121.52l4.37-2.83a4.89,4.89,0,0,1,3.27-.73l6.24.82a4.49,4.49,0,0,1,1.67.58l4.74,2.84L231.63,125l-15.29-.75Z" style="fill:#263238"></path><polygon points="214.9 155.43 229.69 155.43 232.76 158.01 213.79 159.47 214.9 155.43" style="fill:#36E972"></polygon><polygon points="196.84 162.1 214.92 159.25 232.76 158.01 251.99 160.01 253.38 179.37 249.95 231 208.23 231 196.84 181.09 196.84 162.1" style="fill:#263238"></polygon><polygon points="244.81 409.03 252.93 409.88 253.35 405 253.21 404.91 254.14 392.44 254.14 392.39 246.19 391.53 246.24 391.63 245.14 404.91 245.14 405 244.81 409.03" style="fill:#b97964"></polygon><polygon points="204.34 408 212.2 408 212.29 405.6 212.3 405.38 212.66 395.26 212.67 395.04 212.85 390 205.14 390 205.14 390.24 204.99 390.44 204.14 404.87 204.14 405.1 204.34 408" style="fill:#b97964"></polygon><path d="M213.29,407.53h-9.55a.68.68,0,0,0-.67.54l-1.55,7a1.16,1.16,0,0,0,.9,1.37,1.07,1.07,0,0,0,.25,0c3.09-.05,5.34-.24,9.22-.24,2.39,0,9.6.25,12.9.25s3.73-3.26,2.38-3.56c-6.06-1.32-10.62-3.15-12.56-4.89A1.89,1.89,0,0,0,213.29,407.53Z" style="fill:#263238"></path><path d="M253.79,407.28h-9.55a.68.68,0,0,0-.67.54l-1.55,7a1.16,1.16,0,0,0,.9,1.37,1.07,1.07,0,0,0,.25,0c3.09-.05,5.34-.24,9.22-.24,2.39,0,9.6.25,12.9.25s3.73-3.26,2.38-3.56c-6.06-1.32-10.62-3.15-12.56-4.89A1.89,1.89,0,0,0,253.79,407.28Z" style="fill:#263238"></path><polygon points="245.17 405 253.36 405 254.45 392.44 246.34 391.6 246.33 391.63 245.18 404.91 245.17 405" style="opacity:0.2;isolation:isolate"></polygon><polygon points="204.6 405.3 212.29 406 212.3 406 212.67 395.47 212.66 395.36 205.29 390.49 204.62 405 204.6 405.3" style="opacity:0.2;isolation:isolate"></polygon><path d="M202.63,403.5l12.06,1.41s8.91-59.64,12.66-85.35c.06-.41.11-.81.17-1.2,1.48-10.15,3.18-29.24,4.62-47.18.82,2.2,1.57,4.63,2.27,7.28.15.55.3,1.11.44,1.68s.33,1.35.49,2,.3,1.32.45,2c.26,1.22.52,2.48.77,3.76,8.1,41.53,8.26,114.89,8.26,114.89l11.4.69c8.3-63.63-.86-140-5.36-167.73a.51.51,0,0,1,0,.13c-.08-.52-.17-1-.25-1.55a.43.43,0,0,0,0-.11c-.22-1.35-.43-2.26-.62-3.26H208.3s0,.36-.05.61,0,.59,0,.94,0,.52,0,.82,0,.34,0,.52,0,.37,0,.57c0,.9,0,1.95,0,3.13,0,.42,0,.86,0,1.32,0,.26,0,.52,0,.78s0,.74,0,1.13c-.13,10.6-.4,28-.81,45,0,.67,0,1.34,0,2s0,1.06,0,1.59c-.15,6-.32,11.82-.52,17.23s-.41,10.33-.64,14.5c0,.38,0,.78-.06,1.18,0,.57-.06,1.16-.1,1.77C204.53,350,202.63,403.5,202.63,403.5Z" style="fill:#263238"></path><path d="M202.63,403.5l12.06,1.41s8.91-59.64,12.66-85.35c.06-.41.11-.81.17-1.2,1.48-10.15,3.18-29.24,4.62-47.18.82,2.2,1.57,4.63,2.27,7.28.15.55.3,1.11.44,1.68s.33,1.35.49,2,.3,1.32.45,2c.26,1.22.52,2.48.77,3.76,8.1,41.53,8.26,114.89,8.26,114.89l11.4.69c8.3-63.63-.86-140-5.36-167.73a.5.5,0,0,0,0-.12c-.08-.45-.17-.88-.25-1.3a.43.43,0,0,0,0-.11c-.23-1.22-.44-2.26-.62-3.26H208.23s0,.36,0,.61,0,.58,0,.94,0,.52,0,.82v.52c0,.18,0,.37,0,.57,0,.9,0,1.95,0,3.13,0,.42,0,.86,0,1.32,0,.26,0,.52,0,.78s0,.74,0,1.13c-.13,10.6-.4,28-.81,45,0,.67,0,1.34,0,2s0,1.06,0,1.59c-.15,6-.32,11.82-.52,17.23s-.4,10.52-.64,14.75c0,.3,0,.61-.06.93,0,.57-.06,1.16-.1,1.77C204.53,350,202.63,403.5,202.63,403.5Z" style="opacity:0.30000000000000004;isolation:isolate"></path><path d="M296.72,165.2l11.72-13.63a6.69,6.69,0,0,1,1.19-4.46c1.51-2,8.79-5.28,9.34-4.74s2,7.76,1.18,8.54-8.07,4.64-8.07,4.64l-8.8,14.2Z" style="fill:#b97964"></path><path d="M304.69,153.82s-16.37,22.62-20.44,23.29S252,160,252,160l-.53,18.37s25.63,13.57,33.43,12.14,26.63-30.13,26.63-30.13Z" style="fill:#263238"></path><path d="M153.1,167.32l-11.72-13.63a6.67,6.67,0,0,0-1.19-4.45c-1.51-2-8.79-5.28-9.34-4.74s-1.95,7.76-1.18,8.54,8.07,4.63,8.07,4.63l8.8,14.2Z" style="fill:#b97964"></path><path d="M144.23,155.94s16.36,22.63,20.44,23.29,32.26-17.09,32.26-17.09l.06,19.59s-26.47,14.2-34.27,12.78-25.32-32-25.32-32Z" style="fill:#263238"></path><polygon points="208.65 228.86 202.63 259.89 226.5 267.4 232.28 256.91 239.01 265.9 256.25 261.4 249.31 227.9 208.65 228.86" style="fill:#263238"></polygon><polygon points="234.79 206.72 237.36 173.57 232.76 158.01 213.79 159.47 218.29 175.9 234.79 206.72" style="fill:#36E972"></polygon><polygon points="234.79 206.72 237.36 173.57 232.76 158.01 213.79 159.47 218.29 175.9 234.79 206.72" style="fill:#fff;opacity:0.4"></polygon><path d="M238.33,124c1.83,3.83-.13,11.88-4.44,13.5-6.65,2.49-5.75-16-5.75-16S236.12,119.37,238.33,124Z" style="fill:#263238"></path><path d="M214.92,159.25c3.83,3.48,15.81,9.07,15.81,9.07s3.26-8.48,2-10.31c-3.45-.57-5.12-2.18-5.81-4.24a10,10,0,0,1-.35-3.94,20.71,20.71,0,0,1,.29-2.2L215.29,139C216.81,144.71,218.67,155.14,214.92,159.25Z" style="fill:#b97964"></path><path d="M218,144.5c.46,7,6.18,8.88,9,9.27a10,10,0,0,1-.35-3.94Z" style="opacity:0.2;isolation:isolate"></path><path d="M217.19,146.11a9.83,9.83,0,0,0,11.29,3.81,11,11,0,0,0,6.25-5.09,11.2,11.2,0,0,0,.52-1c2.83-6.62,3.73-18.2-3.27-22.54a10.66,10.66,0,0,0-16.28,8C214.84,137,214,141.53,217.19,146.11Z" style="fill:#b97964"></path><path d="M227,133.42c-.15.61.13,1.18.54,1.25s.83-.38.94-1-.14-1.18-.55-1.25S227.1,132.78,227,133.42Z" style="fill:#263238"></path><path d="M234.05,134.62c-.15.61.14,1.19.55,1.26s.82-.39.93-1-.14-1.19-.54-1.26S234.15,134,234.05,134.62Z" style="fill:#263238"></path><path d="M231.75,134.55a22.55,22.55,0,0,0,2.08,5.85,3.66,3.66,0,0,1-3.1,0Z" style="fill:#a24e3f"></path><path d="M225.18,130.75a.4.4,0,0,0,.39-.08,3,3,0,0,1,2.55-.83.37.37,0,1,0,.18-.72h0a3.69,3.69,0,0,0-3.24,1,.37.37,0,0,0,0,.52h0A.44.44,0,0,0,225.18,130.75Z" style="fill:#263238"></path><path d="M229.16,143.51h0a5.69,5.69,0,0,1-4.63-2.52.21.21,0,0,1,.07-.27.19.19,0,0,1,.26.06h0a5.46,5.46,0,0,0,4.31,2.32.2.2,0,0,1,.19.19v0a.18.18,0,0,1-.19.19Z" style="fill:#263238"></path><path d="M237.5,132.7a.43.43,0,0,0,.22.06.39.39,0,0,0,.26-.46h0a3.69,3.69,0,0,0-2.29-2.51.37.37,0,0,0-.46.25h0a.39.39,0,0,0,.25.46h0a3,3,0,0,1,1.78,2A.37.37,0,0,0,237.5,132.7Z" style="fill:#263238"></path><path d="M214.92,121.52s-3.74,5-2.84,13c.78,7,4.47,10.28,4.47,10.28-1.66-3.33-1.16-9.83-.08-10s1,1.09,1,1.09c2.41-1.51,5.92-3.92,3.23-11.17-.32-.86,1.76-.07,1.76-2.32S217.38,119.12,214.92,121.52Z" style="fill:#263238"></path><path d="M211.28,135a7.4,7.4,0,0,0,3.55,4.41c2.29,1.23,4-.69,3.84-3.14-.15-2.19-1.51-5.53-4-5.72S210.62,132.68,211.28,135Z" style="fill:#b97964"></path><polygon points="230.73 168.32 229.37 162.03 214.9 155.43 221.78 164.42 230.73 168.32" style="fill:#36E972"></polygon><polygon points="230.73 168.32 229.37 162.03 214.9 155.43 221.78 164.42 230.73 168.32" style="fill:#fff;opacity:0.4"></polygon><polygon points="214.9 155.43 229.37 162.03 228.09 168.32 213.79 159.47 214.9 155.43" style="fill:#36E972"></polygon><polygon points="214.9 155.43 229.37 162.03 228.09 168.32 213.79 159.47 214.9 155.43" style="fill:#fff;opacity:0.30000000000000004"></polygon><polygon points="230.73 168.32 230 161.88 229.69 155.43 232.76 158.01 230.73 168.32" style="fill:#36E972"></polygon><polygon points="233.56 167.57 230 161.88 229.69 155.43 232.76 158.01 233.56 167.57" style="fill:#36E972"></polygon><polygon points="233.56 167.57 230 161.88 229.69 155.43 232.76 158.01 233.56 167.57" style="fill:#fff;opacity:0.2"></polygon><polygon points="229.37 162.03 230 161.88 232.76 166.31 231.63 168.08 230.16 168.32 228.31 167.27 229.37 162.03" style="fill:#263238"></polygon><polygon points="230.57 198.84 230.16 168.32 231.63 168.08 235.67 195.39 234.79 206.72 230.57 198.84" style="fill:#263238"></polygon><polygon points="210.04 160.22 212.9 178.22 233.67 220.22 234.79 206.72 217.97 174.73 213.79 159.47 210.04 160.22" style="opacity:0.2"></polygon><polygon points="232.76 158.01 237.36 173.57 232.76 234.55 243.5 174.32 236.44 158.39 232.76 158.01" style="opacity:0.2"></polygon><path d="M253.38,179.37a26.06,26.06,0,0,0-.21-5.42c2.63,3.85,7.4,7.81,14,11.85C262.74,183.94,258.14,181.78,253.38,179.37Z" style="opacity:0.2"></path><path d="M225.42,116l5,1.84a1.28,1.28,0,0,1,.2,2.31l-1.13.64a2.88,2.88,0,0,1-2.17.29l-4.07-1.06-3.11-1.72,1.48-1.47A3.62,3.62,0,0,1,225.42,116Z" style="fill:#263238"></path><path d="M106.83,124s1.15,3.22,6.91,4.45,12.53-1.53,17.82,0S142,135.09,142,135.09l7-22.1a20.57,20.57,0,0,0-10.43-6.66c-6.35-1.44-11.77,1.12-16.88.32a12.66,12.66,0,0,1-7.86-4.75Z" style="fill:#36E972"></path><path d="M106.83,124s1.15,3.22,6.91,4.45,12.53-1.53,17.82,0S142,135.09,142,135.09l7-22.1a20.57,20.57,0,0,0-10.43-6.66c-6.35-1.44-11.77,1.12-16.88.32a12.66,12.66,0,0,1-7.86-4.75Z" style="fill:#fff;opacity:0.30000000000000004"></path><path d="M120.29,114.65a8,8,0,1,0,10.06-5.23A8,8,0,0,0,120.29,114.65Z" style="fill:#fff"></path><g style="opacity:0.4"><path d="M131.33,112.88,129,122.62l-3.29-.8,1.77-7.26-1.66-.41.6-2.47Z"></path></g><rect x="140.4" y="111.09" width="0.85" height="57.3" transform="translate(233.08 315.38) rotate(-162.49)" style="fill:#263238"></rect><rect x="140.4" y="111.09" width="0.85" height="57.3" transform="translate(233.08 315.38) rotate(-162.49)" style="fill:#fff;opacity:0.2;isolation:isolate"></rect><path d="M148.92,112.25a.55.55,0,0,0,.36.7.56.56,0,1,0,.33-1.06A.55.55,0,0,0,148.92,112.25Z" style="fill:#263238"></path><path d="M148.92,112.25a.55.55,0,0,0,.36.7.56.56,0,1,0,.33-1.06A.55.55,0,0,0,148.92,112.25Z" style="fill:#fff;opacity:0.30000000000000004;isolation:isolate"></path></g><g id="freepik--Podium--inject-47"><path d="M335.85,170.57s1.07,1.43,4.14,1.17,6-2.68,8.9-2.74a15.53,15.53,0,0,1,6.24,1.73l.1-12.11a10.8,10.8,0,0,0-6.24-1.73c-3.39.25-5.71,2.36-8.38,2.74a6.58,6.58,0,0,1-4.66-1.17Z" style="fill:#36E972"></path><path d="M335.85,170.57s1.07,1.43,4.14,1.17,6-2.68,8.9-2.74a15.53,15.53,0,0,1,6.24,1.73l.1-12.11a10.8,10.8,0,0,0-6.24-1.73c-3.39.25-5.71,2.36-8.38,2.74a6.58,6.58,0,0,1-4.66-1.17Z" style="fill:#fff;opacity:0.30000000000000004"></path><path d="M341.15,163.84a4.19,4.19,0,1,0,4.22-4.15A4.19,4.19,0,0,0,341.15,163.84Z" style="fill:#fff"></path><g style="opacity:0.4"><path d="M346.86,161.25l0,5.23-1.77,0,0-3.91h-.9v-1.33Z"></path></g><rect x="355.03" y="158.26" width="0.45" height="29.95" transform="translate(709.05 349.41) rotate(-179.53)" style="fill:#263238"></rect><rect x="355.03" y="158.26" width="0.45" height="29.95" transform="translate(709.05 349.41) rotate(-179.53)" style="fill:#fff;opacity:0.2;isolation:isolate"></rect><path d="M355.08,158.26a.29.29,0,0,0,.58,0,.28.28,0,0,0-.28-.29A.31.31,0,0,0,355.08,158.26Z" style="fill:#263238"></path><path d="M355.08,158.26a.29.29,0,0,0,.58,0,.28.28,0,0,0-.28-.29A.31.31,0,0,0,355.08,158.26Z" style="fill:#fff;opacity:0.30000000000000004;isolation:isolate"></path><path d="M317.49,156c1.32-1.14,3.07-1.27,3.9-.3l6.92,8.07-4.78,4.1-6.92-8.06C315.77,158.82,316.17,157.11,317.49,156Z" style="fill:#263238"></path><path d="M323.53,167.85c.83,1,2.58.84,3.9-.29s1.72-2.84.88-3.81-2.58-.84-3.9.29S322.7,166.88,323.53,167.85Z" style="fill:#263238"></path><path d="M323.53,167.85c.83,1,2.58.84,3.9-.29s1.72-2.84.88-3.81-2.58-.84-3.9.29S322.7,166.88,323.53,167.85Z" style="fill:#fff;opacity:0.1"></path><path d="M329.36,184.29s.21-12.8,0-14-2.78-4.45-2.78-4.45a1,1,0,0,0-1.25.42,27.8,27.8,0,0,1,2.5,4.37c.28,1.08,0,13.69,0,13.69Z" style="fill:#263238"></path><path d="M329.36,184.29s.21-12.8,0-14-2.78-4.45-2.78-4.45a1,1,0,0,0-1.25.42,27.8,27.8,0,0,1,2.5,4.37c.28,1.08,0,13.69,0,13.69Z" style="fill:#fff;opacity:0.30000000000000004"></path><polygon points="395.85 189.57 395.85 184.29 307.95 184.29 246.3 210.24 246.3 215.52 287.93 215.52 297 406.32 287.55 406.32 287.55 411.16 268.43 411.16 268.43 416 316.35 416 379.47 416 379.47 411.16 361.92 411.16 361.92 406.32 346.8 406.32 357.87 205.56 395.85 189.57" style="fill:#36E972"></polygon><rect x="307.95" y="184.29" width="87.9" height="5.29" style="opacity:0.2"></rect><polygon points="307.95 189.57 246.3 215.52 246.3 210.24 307.95 184.29 307.95 189.57" style="opacity:0.4"></polygon><polygon points="358.35 196.77 313.35 196.77 287.55 207.57 287.93 215.52 246.3 215.52 307.95 189.57 395.85 189.57 357.87 205.56 358.35 196.77" style="opacity:0.5"></polygon><polygon points="346.8 406.32 313.35 406.32 313.35 196.77 358.35 196.77 346.8 406.32" style="fill:#fff;opacity:0.4"></polygon><polygon points="313.35 406.32 297 406.32 287.55 207.57 313.35 196.77 313.35 406.32" style="fill:#fff;opacity:0.2"></polygon><rect x="318.38" y="411.16" width="61.09" height="4.84" style="fill:#36E972"></rect><rect x="316.35" y="406.32" width="45.56" height="4.84" style="opacity:0.1"></rect><rect x="268.43" y="411.16" width="49.95" height="4.84" style="opacity:0.2"></rect><rect x="287.55" y="406.32" width="28.8" height="4.84" style="opacity:0.30000000000000004"></rect><polygon points="321.08 406.32 323.09 207.4 348.92 207.4 339.13 406.32 321.08 406.32" style="fill:#fff;opacity:0.30000000000000004"></polygon><polygon points="323.06 210.55 345.54 210.55 348.92 207.4 323.09 207.4 323.06 210.55" style="fill:#263238;opacity:0.30000000000000004"></polygon><polygon points="339.13 406.32 348.92 207.4 345.54 210.55 335.99 406.32 339.13 406.32" style="fill:#263238;opacity:0.5"></polygon></g><g id="freepik--Graphic--inject-47"><path d="M107.1,43.9V302.49H343.2V43.9ZM123.1,81H328.18V256.35H123.1V81Z" style="fill:#36E972"></path><path d="M107.1,43.9V302.49H343.2V43.9Zm16,36.92H328.18V256.29H123.1V80.82Z" style="fill:#fff;opacity:0.7000000000000001"></path><path d="M334.87,264.43H115.36V73.82H334.87Zm-217.55-2H332.91V75.78H117.32Z" style="fill:#fff"></path><path d="M187.1,259.27l-16.89,39.94H157l-16.89-39.94h14.49l9.53,23.33,9.75-23.33Z" style="fill:#36E972"></path><path d="M197.2,297.44a20.46,20.46,0,0,1,0-36.4,26.27,26.27,0,0,1,23.16,0,20.47,20.47,0,0,1,0,36.4,26.36,26.36,0,0,1-23.16,0ZM213.32,288a8.68,8.68,0,0,0,3.22-3.48,12.19,12.19,0,0,0,0-10.55,8.82,8.82,0,0,0-3.22-3.48,9,9,0,0,0-9.07,0A8.77,8.77,0,0,0,201,274a12.19,12.19,0,0,0,0,10.55,8.82,8.82,0,0,0,12.3,3.48Z" style="fill:#36E972"></path><path d="M244.33,269.71h-11.7V259.27h36.86v10.44h-11.7v29.5H244.33Z" style="fill:#36E972"></path><path d="M306.17,289.05v10.16H273V259.27h32.46v10.15H286.2v4.68h16.89v9.7H286.2v5.25Z" style="fill:#36E972"></path><path d="M196.48,271.09a29.61,29.61,0,0,1,12.58,6.78c8.22-16.3,21.52-30.85,38.53-44.11a195.93,195.93,0,0,0-35.94,58.09C208.7,284.69,203.77,277.75,196.48,271.09Z" style="fill:#fff"></path><polygon points="137.21 330.38 130.71 253.48 65.42 294.63 93.81 308.77 79.31 337.89 94.31 345.37 108.82 316.24 137.21 330.38" style="fill:#263238"></polygon><path d="M361.58,79.76A30.36,30.36,0,1,1,331,49.65,30.36,30.36,0,0,1,361.58,79.76Z" style="fill:#e0e0e0"></path><g style="opacity:0.7000000000000001"><path d="M339.22,61l.31,37.93L326.74,99l-.23-28.29-6.5.06-.08-9.65Z" style="fill:#36E972"></path></g></g></svg>
